<svg width="266" height="266" viewBox="0 0 266 266" fill="none" xmlns="http://www.w3.org/2000/svg">
<path d="M132.75 258.041C199.969 258.041 254.461 226.579 254.461 187.769C254.461 148.959 199.969 117.498 132.75 117.498C65.5309 117.498 11.0391 148.959 11.0391 187.769C11.0391 226.579 65.5309 258.041 132.75 258.041Z" fill="#F5F5F5"/>
<path d="M177.289 242.597C195.514 242.597 210.289 234.068 210.289 223.546C210.289 213.025 195.514 204.495 177.289 204.495C159.064 204.495 144.289 213.025 144.289 223.546C144.289 234.068 159.064 242.597 177.289 242.597Z" fill="#E6E6E6"/>
<path d="M81.4864 229.654C99.3533 229.654 113.837 221.291 113.837 210.975C113.837 200.659 99.3533 192.297 81.4864 192.297C63.6195 192.297 49.1355 200.659 49.1355 210.975C49.1355 221.291 63.6195 229.654 81.4864 229.654Z" fill="#E6E6E6"/>
<path d="M100.362 48.6993C100.362 48.6993 105.682 46.9064 109.214 48.3322C112.108 49.5026 114.045 51.2263 115.311 53.716C119.87 57.9242 128.776 66.4841 131.367 70.5166C132.042 71.5806 132.761 72.2456 132.697 73.2937C132.643 74.0863 132.26 74.613 131.468 75.6132L122.083 74.4481C119.003 71.9583 112.31 67.1544 108.251 62.8824L107.964 65.2658C106.275 64.5352 104.786 63.4105 103.622 61.9859C102.458 60.5614 101.652 58.8785 101.271 57.0783C99.734 49.7154 100.362 48.6993 100.362 48.6993Z" fill="#1993CE"/>
<path opacity="0.15" d="M121.248 73.7831C122.312 72.5382 124.972 71.5381 126.392 71.7189C126.392 71.7189 123.86 70.5539 120.078 72.8787L121.248 73.7831Z" fill="black"/>
<path d="M107.145 131.585C86.7904 131.239 78.6242 156.504 67.2447 148.609C56.6898 141.31 68.7077 128.787 86.3967 120.163C102.889 112.098 107.581 98.6594 108.794 91.6636C110.129 83.9496 110.443 72.4265 108.108 58.536C107.251 53.4554 102.83 48.96 96.3664 48.2364L87.6788 48.0396C87.6788 48.0396 85.4338 48.4014 81.5555 49.1941C77.6772 49.9867 75.6556 51.8008 75.2939 54.8864C75.0377 56.6433 75.1445 58.434 75.6077 60.1479L76.6079 67.5215C76.6079 67.5215 79.5605 75.7834 79.7999 78.9488C80.126 83.1502 79.4514 87.369 77.8315 91.2593C74.5118 99.1488 61.547 106.895 49.6621 121.099C38.5646 134.362 41.331 156.578 56.5409 162.76C69.5163 168.032 83.0345 165.026 93.0361 154.424C106.746 139.879 119.104 143.204 117.593 149.774C115.359 159.451 101 156.897 90.9027 164.67C80.534 172.65 83.2419 182.928 87.6788 186.934C91.855 190.701 97.7868 189.695 97.7868 189.695C97.7868 189.695 86.9872 188.158 88.0033 178.805C88.9503 170.07 96.5153 167.729 113.635 163.686C133 159.132 132.138 132.01 107.145 131.585Z" fill="#1993CE"/>
<path opacity="0.1" d="M99.0318 85.3115C99.002 85.4794 98.9406 85.6401 98.8509 85.785C98.7332 85.9419 98.5776 86.0664 98.3987 86.1468C97.4677 86.6096 96.3292 86.3702 95.3397 86.6788C94.5364 86.9448 95.8717 87.2427 96.1164 87.2746C96.6475 87.3172 97.1812 87.3172 97.7124 87.2746C97.9486 87.2795 98.1848 87.2707 98.42 87.248C98.952 87.1629 99.484 86.7852 99.9894 86.716C100.484 86.7284 100.97 86.8406 101.42 87.0459C102.394 87.3278 104.384 87.5247 105.011 86.4713C105.04 86.432 105.061 86.3872 105.072 86.3396C105.083 86.292 105.084 86.2427 105.075 86.1947C105.052 86.1355 105.011 86.0853 104.957 86.0509C104.904 86.0165 104.841 85.9998 104.777 86.0031C104.651 86.0092 104.527 86.0362 104.41 86.0829C103.426 86.3862 101.309 86.5617 101.319 85.0509C101.289 84.3129 101.328 83.5737 101.436 82.8431C101.474 82.6462 101.697 82.5505 101.889 82.5026C102.575 82.343 103.298 82.4175 104.017 82.2898C104.154 82.2711 104.287 82.224 104.405 82.1515C104.463 82.1128 104.511 82.0596 104.543 81.9972C104.574 81.9347 104.589 81.865 104.586 81.795C104.582 81.7651 104.569 81.7371 104.549 81.7152C104.516 81.7046 104.48 81.7046 104.448 81.7152C103.793 81.7471 103.139 81.7152 102.484 81.7152C102.173 81.7161 101.864 81.6565 101.575 81.5397C101.341 81.4002 101.145 81.2074 101 80.9772C100.856 80.7469 100.769 80.4857 100.745 80.215C100.633 79.5872 100.479 78.5232 101.032 78.0338C101.287 77.8554 101.594 77.7691 101.905 77.7891C102.473 77.7928 103.038 77.7177 103.586 77.5656C103.698 77.5364 103.801 77.4817 103.889 77.406C103.933 77.3682 103.965 77.3183 103.981 77.2626C103.997 77.2068 103.996 77.1476 103.979 77.0921C103.249 77.1117 102.518 77.0779 101.793 76.9911C101.608 76.9755 101.427 76.925 101.261 76.8421C100.787 76.5814 100.622 75.5972 100.553 75.0971C100.539 74.3833 100.468 73.6717 100.34 72.9691C100.298 72.8255 100.213 72.6606 100.064 72.6553C99.9149 72.6499 99.7925 72.9 99.7819 73.0968L99.6595 74.9641C99.6488 75.3421 99.5916 75.7173 99.4893 76.0813C99.0903 77.2943 97.8667 77.1453 96.8293 77.3049C96.4622 77.3581 96.0153 77.7465 96.2973 78.0072C96.3994 78.0844 96.526 78.1222 96.6537 78.1136L98.6753 78.2306C98.8098 78.2207 98.9435 78.2583 99.053 78.337C99.1316 78.4232 99.1833 78.5305 99.202 78.6456C99.3413 79.2022 99.4303 79.7701 99.468 80.3427C99.4767 80.6808 99.3696 81.0117 99.1645 81.2807C98.9593 81.5497 98.6685 81.7405 98.3402 81.8216C97.9195 81.9387 97.4838 81.9925 97.0474 81.9812H96.0153C95.861 81.9812 95.6536 82.0238 95.6216 82.1781C95.6168 82.2295 95.6281 82.2811 95.6538 82.3259C95.6795 82.3706 95.7184 82.4064 95.7653 82.4281C95.8592 82.4689 95.9608 82.4889 96.0632 82.4866C96.8346 82.5398 97.8294 82.5292 98.4732 83.0186C99.1169 83.5081 99.1701 84.588 99.0318 85.3115Z" fill="black"/>
<path opacity="0.1" d="M88.2428 70.9954C88.2351 71.0268 88.2351 71.0597 88.2428 71.0912C88.2722 71.1612 88.3223 71.2206 88.3865 71.2614C89.5941 72.2084 91.3497 72.2403 92.8446 72.2403C94.6173 72.2381 96.371 71.8761 97.9997 71.1763C98.4587 70.9625 98.9336 70.7846 99.4201 70.6443C100.622 70.3357 101.511 70.8624 102.612 71.1443C104.305 71.575 106.077 71.5915 107.778 71.1922C108.704 70.9741 109.778 70.3783 109.714 69.4313C109.714 69.7186 103.756 69.7611 103.33 69.7399C102.752 69.7478 102.182 69.6047 101.676 69.3249C101.228 68.98 100.912 68.4917 100.782 67.9417C100.633 67.4097 100.591 66.8405 100.495 66.2872C100.442 65.9627 99.3403 62.2866 98.8296 62.925C98.7807 63.0025 98.7601 63.0946 98.7711 63.1856C98.803 64.4784 99.5053 66.9096 99.1275 68.3886C98.7498 69.8676 96.6857 70.3517 95.4035 70.5592C93.6809 70.8276 91.9321 70.8866 90.1953 70.7347C89.6996 70.671 89.199 70.655 88.7003 70.6868C88.5141 70.7081 88.2694 70.8252 88.2428 70.9954Z" fill="black"/>
<path d="M85.2209 48.4705C85.3859 49.0025 85.7051 51.6146 87.3489 53.4394C89.6685 56.0143 91.1634 56.525 93.0147 57.3549C94.0787 57.8444 95.9939 73.4958 95.0204 83.3538C95.0204 83.3538 86.0934 85.1413 79.0604 83.0824C79.0604 83.0824 78.5709 77.0921 78.0336 73.5384C77.6399 70.9582 73.9957 58.7807 74.1021 55.1312C74.1926 52.019 75.363 50.2687 78.9646 49.5239C82.5663 48.7791 85.2209 48.4705 85.2209 48.4705Z" fill="#455A64"/>
<path d="M92.1583 58.7807C92.1528 58.7314 92.1334 58.6847 92.1023 58.6461C92.0712 58.6074 92.0297 58.5785 91.9827 58.5626C90.033 57.7873 88.269 56.6089 86.8064 55.1046C85.0935 53.3677 84.0351 51.0911 83.8112 48.662L83.2792 48.7418C83.5267 51.2697 84.6282 53.6378 86.4021 55.4557C87.8896 56.9822 89.6726 58.1896 91.6423 59.0041C91.7114 59.584 91.7753 60.1639 91.8497 60.7597C92.4988 66.3032 93.2329 72.5754 92.7914 81.3056C88.1706 82.0696 83.4461 81.9396 78.8743 80.9225C78.8743 81.1194 78.9115 81.3056 78.9275 81.4545C81.4891 82.0283 84.1068 82.3138 86.7319 82.3057C88.8718 82.3271 91.0091 82.149 93.1159 81.7737C93.1724 81.7611 93.2233 81.7303 93.2607 81.6862C93.2981 81.642 93.3202 81.5868 93.3234 81.529C93.7862 72.6393 93.0414 66.2872 92.3871 60.6799C92.3073 60.0468 92.2275 59.4084 92.1583 58.7807Z" fill="#FAFAFA"/>
<path opacity="0.15" d="M86.2531 144.917C89.3946 140.654 93.0868 136.826 97.2336 133.532C83.742 139.256 76.5707 155.062 67.2341 148.604C57.8975 142.145 66.2233 131.58 80.5022 123.28C73.3468 126.648 59.7542 133.888 56.1738 142.315C53.8011 147.928 57.6049 155.903 66.484 156.509C75.363 157.116 81.497 151.551 86.2531 144.917Z" fill="black"/>
<path opacity="0.15" d="M113.066 144.3C116.396 144.832 118.216 147.008 117.577 149.769C115.343 159.446 100.984 156.892 90.8868 164.665C85.2051 169.048 83.4388 174.108 83.758 178.449C85.487 167.995 96.0206 163.718 105.038 162.005C114.055 160.292 119.7 156.818 120.764 151.53C121.828 146.241 116.939 144.747 113.066 144.3Z" fill="black"/>
<path opacity="0.15" d="M109.315 87.6789H109.214L109.102 88.8919C109.102 88.8919 105.288 93.3873 94.0893 92.9777C81.2681 92.5148 78.938 88.5567 78.938 88.5567C79.0018 88.2535 79.071 87.929 79.1454 87.5247H79.055C78.7381 88.8111 78.32 90.0706 77.8048 91.2912C77.6824 91.5891 77.5388 91.8871 77.3845 92.185C77.2888 92.3659 77.193 92.5467 77.0919 92.717V92.7542C76.9908 92.9298 76.8898 93.1053 76.7834 93.2862C76.7816 93.3021 76.7816 93.3182 76.7834 93.3341C76.0029 94.5581 75.124 95.7163 74.1553 96.7974C76.145 98.3296 79.5178 100.208 82.7311 100.309C84.5495 100.384 86.3258 99.7484 87.684 98.5371C89.7457 98.9199 91.8337 99.144 93.9297 99.2074C96.9916 99.3651 100.059 99.0329 103.016 98.2232C104 99.0373 105.22 99.5113 106.496 99.5745C106.996 98.3775 107.4 97.2283 107.735 96.1377C107.735 96.0633 107.778 95.9888 107.799 95.9143C107.879 95.6696 107.948 95.4249 108.012 95.1801L108.113 94.8397C108.203 94.4992 108.288 94.1693 108.363 93.8501C108.363 93.7437 108.411 93.6427 108.432 93.5416C108.485 93.3181 108.533 93.1 108.576 92.8872C108.608 92.7489 108.634 92.6106 108.661 92.4723C108.687 92.3339 108.693 92.3286 108.703 92.2595C108.735 92.0786 108.773 91.8871 108.804 91.7275C108.975 90.44 109.161 89.0994 109.315 87.6789Z" fill="black"/>
<path d="M79.401 85.9127C78.5445 85.6307 78.4434 86.6362 77.7411 88.8227C77.0761 90.8709 76.6186 91.8179 77.2411 92.419C78.1455 93.2915 83.2154 97.207 94.1321 97.5741C103.176 97.888 107.299 94.9141 108.187 94.3502C109.209 93.7384 109.714 93.0308 110.034 89.227C110.193 87.381 110.47 86.0882 109.464 86.0669L109.416 86.8171C109.416 86.8171 105.543 91.7753 94.3449 91.371C81.5237 90.9028 79.1882 86.9447 79.1882 86.9447C79.268 86.6415 79.3265 86.317 79.401 85.9127Z" fill="#1993CE"/>
<path opacity="0.7" d="M79.401 85.9127C78.5445 85.6307 78.4434 86.6362 77.7411 88.8227C77.0761 90.8709 76.6186 91.8179 77.2411 92.419C78.1455 93.2915 83.2154 97.207 94.1321 97.5741C103.176 97.888 107.299 94.9141 108.187 94.3502C109.209 93.7384 109.714 93.0308 110.034 89.227C110.193 87.381 110.47 86.0882 109.464 86.0669L109.416 86.8171C109.416 86.8171 105.543 91.7753 94.3449 91.371C81.5237 90.9028 79.1882 86.9447 79.1882 86.9447C79.268 86.6415 79.3265 86.317 79.401 85.9127Z" fill="white"/>
<path d="M90.8815 41.5811C99.1994 41.5811 105.942 34.8381 105.942 26.5202C105.942 18.2023 99.1994 11.4593 90.8815 11.4593C82.5636 11.4593 75.8206 18.2023 75.8206 26.5202C75.8206 34.8381 82.5636 41.5811 90.8815 41.5811Z" fill="#263238"/>
<path d="M105.432 20.5884C105.432 20.5884 104.112 13.5979 94.616 13.8639C85.4178 14.1193 81.0554 20.5884 80.0446 24.5039C79.2306 27.6374 78.5018 35.5855 84.3325 36.8516L105.432 20.5884Z" fill="#37474F"/>
<path d="M86.8382 34.0161C86.3754 34.6917 85.6253 33.1968 85.0188 32.5371C84.4123 31.8774 82.3588 31.3135 81.3586 33.4788C80.3585 35.644 82.0502 37.7826 83.4866 38.4902C86.0136 39.7457 86.817 37.9156 86.817 37.9156L87.0031 48.412C90.5675 53.9235 99.2977 55.1205 96.3344 48.6142V44.7306C97.3296 44.8934 98.3414 44.9291 99.3456 44.837C100.415 44.6132 101.405 44.1082 102.214 43.3741C103.023 42.64 103.621 41.7033 103.947 40.6608C105.011 37.3304 105.416 33.7448 104.682 27.116C103.83 19.4074 94.1266 19.3276 89.5248 22.4398C85.4497 25.2221 86.8382 34.0161 86.8382 34.0161Z" fill="#1993CE"/>
<path opacity="0.3" d="M95.9886 44.688C94.1462 44.3329 92.343 43.7984 90.6047 43.092C91.3126 43.9101 92.2333 44.5159 93.2647 44.8423C94.1607 45.1477 95.076 45.3929 96.0045 45.5764L95.9886 44.688Z" fill="black"/>
<path opacity="0.3" d="M96.824 39.4904L98.9892 39.5329C98.9893 39.6819 98.9595 39.8294 98.9017 39.9667C98.8439 40.104 98.7592 40.2284 98.6526 40.3325C98.5461 40.4365 98.4198 40.5183 98.2811 40.5728C98.1425 40.6274 97.9943 40.6537 97.8454 40.6501C97.557 40.6296 97.2882 40.4965 97.0971 40.2795C96.906 40.0625 96.8079 39.7791 96.824 39.4904Z" fill="black"/>
<path d="M102.069 41.1556C102.06 40.8901 102.036 40.6254 101.995 40.3629C101.943 39.924 101.789 39.5033 101.546 39.134C101.303 38.7647 100.978 38.4569 100.596 38.2349C99.7727 37.9593 98.8986 37.8702 98.0369 37.9742C96.4409 38.054 95.2864 38.4211 94.6746 39.3734C94.1941 40.1309 93.9235 41.0026 93.8908 41.8991C93.8581 42.7956 94.0643 43.6847 94.4884 44.4752C95.6748 46.6032 97.9145 47.0342 100.08 47.082C101.007 47.0703 101.925 46.89 102.788 46.55C103.165 46.4077 103.483 46.1411 103.689 45.7939C103.895 45.4468 103.977 45.0399 103.921 44.6402C103.921 44.5444 103.825 44.422 103.729 44.454C103.757 44.5463 103.76 44.6447 103.737 44.7384C103.713 44.8321 103.665 44.9177 103.596 44.986C103.187 45.4169 102.484 45.0551 102.234 44.6242C102.03 44.2104 101.946 43.7481 101.99 43.2889C102.011 42.56 102.091 41.8578 102.069 41.1556ZM101.08 42.3419C100.856 43.1506 99.7339 43.2729 99.2658 43.0176C99.0477 42.9005 98.9147 41.8312 99.2658 41.661C99.6169 41.4907 99.436 41.2141 98.4571 41.2886C97.4783 41.363 97.4783 41.6397 97.8613 41.7248C98.2443 41.8099 98.3933 42.7888 97.9145 43.0016C97.6082 43.1317 97.2772 43.1934 96.9445 43.1823C96.6119 43.1713 96.2857 43.0878 95.9887 42.9378C95.2811 42.4058 95.1428 40.432 95.7546 39.6394C96.4568 38.735 97.7283 38.7137 98.5529 38.7562C99.4626 38.7988 100.367 38.8254 100.989 39.5596C101.612 40.2937 101.277 41.5546 101.08 42.3419Z" fill="#1993CE"/>
<path opacity="0.5" d="M102.069 41.1556C102.06 40.8901 102.036 40.6254 101.995 40.3629C101.943 39.924 101.789 39.5033 101.546 39.134C101.303 38.7647 100.978 38.4569 100.596 38.2349C99.7727 37.9593 98.8986 37.8702 98.0369 37.9742C96.4409 38.054 95.2864 38.4211 94.6746 39.3734C94.1941 40.1309 93.9235 41.0026 93.8908 41.8991C93.8581 42.7956 94.0643 43.6847 94.4884 44.4752C95.6748 46.6032 97.9145 47.0342 100.08 47.082C101.007 47.0703 101.925 46.89 102.788 46.55C103.165 46.4077 103.483 46.1411 103.689 45.7939C103.895 45.4468 103.977 45.0399 103.921 44.6402C103.921 44.5444 103.825 44.422 103.729 44.454C103.757 44.5463 103.76 44.6447 103.737 44.7384C103.713 44.8321 103.665 44.9177 103.596 44.986C103.187 45.4169 102.484 45.0551 102.234 44.6242C102.03 44.2104 101.946 43.7481 101.99 43.2889C102.011 42.56 102.091 41.8578 102.069 41.1556ZM101.08 42.3419C100.856 43.1506 99.7339 43.2729 99.2658 43.0176C99.0477 42.9005 98.9147 41.8312 99.2658 41.661C99.6169 41.4907 99.436 41.2141 98.4571 41.2886C97.4783 41.363 97.4783 41.6397 97.8613 41.7248C98.2443 41.8099 98.3933 42.7888 97.9145 43.0016C97.6082 43.1317 97.2772 43.1934 96.9445 43.1823C96.6119 43.1713 96.2857 43.0878 95.9887 42.9378C95.2811 42.4058 95.1428 40.432 95.7546 39.6394C96.4568 38.735 97.7283 38.7137 98.5529 38.7562C99.4626 38.7988 100.367 38.8254 100.989 39.5596C101.612 40.2937 101.277 41.5546 101.08 42.3419Z" fill="black"/>
<path d="M93.8233 29.3398L91.9347 30.4038C91.8005 30.1349 91.7714 29.8256 91.853 29.5364C91.9347 29.2472 92.1213 28.9988 92.3763 28.8397C92.5027 28.7702 92.6423 28.728 92.786 28.7157C92.9298 28.7034 93.0745 28.7215 93.2108 28.7686C93.3472 28.8157 93.4721 28.8909 93.5776 28.9893C93.6831 29.0877 93.7668 29.2071 93.8233 29.3398Z" fill="#263238"/>
<path d="M103.33 30.4996L101.612 29.1217C101.689 29.0008 101.79 28.8977 101.91 28.819C102.029 28.7403 102.164 28.6879 102.305 28.6653C102.447 28.6427 102.591 28.6503 102.729 28.6877C102.868 28.7251 102.996 28.7914 103.107 28.8823C103.34 29.075 103.492 29.348 103.533 29.6474C103.575 29.9469 103.502 30.2509 103.33 30.4996Z" fill="#263238"/>
<path d="M102.495 32.7872C102.481 32.9596 102.418 33.1242 102.312 33.2611C102.207 33.3979 102.063 33.5009 101.9 33.5575C101.737 33.6141 101.56 33.6218 101.393 33.5797C101.225 33.5376 101.073 33.4474 100.956 33.3203C100.839 33.1933 100.761 33.0347 100.733 32.8642C100.704 32.6937 100.726 32.5186 100.796 32.3603C100.866 32.2021 100.98 32.0676 101.125 31.9733C101.27 31.879 101.439 31.8291 101.612 31.8296C101.733 31.8344 101.851 31.863 101.961 31.9137C102.071 31.9644 102.17 32.0363 102.252 32.1253C102.334 32.2142 102.398 32.3185 102.439 32.432C102.481 32.5456 102.5 32.6663 102.495 32.7872Z" fill="#263238"/>
<path d="M95.0152 33.0638C95.0017 33.2362 94.9382 33.4008 94.8326 33.5377C94.7269 33.6745 94.5836 33.7775 94.4203 33.8341C94.2569 33.8907 94.0806 33.8984 93.9129 33.8563C93.7452 33.8142 93.5935 33.724 93.4763 33.597C93.3591 33.4699 93.2815 33.3113 93.2531 33.1408C93.2246 32.9703 93.2466 32.7952 93.3162 32.6369C93.3858 32.4787 93.5 32.3442 93.645 32.2499C93.7899 32.1556 93.9592 32.1057 94.132 32.1062C94.2529 32.111 94.3717 32.1396 94.4815 32.1903C94.5914 32.2411 94.6901 32.313 94.7721 32.4019C94.8542 32.4908 94.9179 32.5951 94.9595 32.7087C95.0012 32.8222 95.0201 32.9429 95.0152 33.0638Z" fill="#263238"/>
<path opacity="0.3" d="M97.6431 31.404L97.7441 36.9847L100.91 36.2558L97.6431 31.404Z" fill="black"/>
<path d="M85.0187 32.5371C85.0187 32.5371 88.5512 25.2062 95.4193 24.2486C102.287 23.291 104.751 26.2649 104.804 28.5791C105.372 28.2035 105.861 27.7184 106.24 27.1521C106.619 26.5858 106.881 25.9496 107.012 25.2807C107.629 21.9503 105.416 16.1356 95.4033 16.907C88.1096 17.4709 83.9175 21.9025 82.4864 26.1585C81.8373 28.0949 81.9544 31.2657 82.4385 32.202C82.8521 31.9906 83.32 31.9094 83.7806 31.9693C84.2412 32.0291 84.6729 32.2271 85.0187 32.5371Z" fill="#455A64"/>
<path d="M100.91 20.9661C100.908 21.1144 100.872 21.2603 100.803 21.3917L100.058 22.876C99.9885 23.0183 99.882 23.1395 99.7499 23.2271C99.6216 23.3142 99.4733 23.3673 99.3189 23.3814L98.3454 23.4399H98.0102C97.8251 23.4555 97.6397 23.4147 97.4782 23.3229C97.3329 23.2404 97.2118 23.1212 97.1271 22.9771L96.4249 21.663C96.3554 21.5319 96.3189 21.3858 96.3185 21.2374C96.3153 21.1251 96.3334 21.0132 96.3717 20.9076L97.1697 19.3116C97.2379 19.1698 97.3425 19.0486 97.4729 18.9605C97.6074 18.8683 97.7629 18.8116 97.9251 18.7956H98.3081L99.2125 18.7424C99.3895 18.7325 99.5656 18.7732 99.7201 18.8599C99.8747 18.9466 100.001 19.0756 100.085 19.2318L100.787 20.5405C100.863 20.67 100.905 20.8163 100.91 20.9661Z" fill="#37474F"/>
<path d="M100.91 20.8597C100.908 20.9908 100.877 21.1199 100.819 21.2375L100.154 22.5515C100.094 22.6759 100.002 22.7823 99.8882 22.8601C99.7743 22.9379 99.6425 22.9855 99.5051 22.9984L98.6486 23.0516H98.3507C98.1931 23.0582 98.0366 23.0214 97.8985 22.9452C97.7722 22.8711 97.6662 22.7669 97.5899 22.6419L96.9781 21.4822C96.9117 21.3676 96.8786 21.2368 96.8824 21.1045C96.8808 21.007 96.8952 20.91 96.9249 20.8172L97.6325 19.4127C97.6912 19.2874 97.7832 19.1807 97.8985 19.1041C98.0167 19.0223 98.1542 18.9728 98.2975 18.9605H98.638L99.4306 18.9126C99.5899 18.9067 99.7479 18.9434 99.8882 19.019C100.019 19.098 100.128 19.2098 100.202 19.3435L100.824 20.5033C100.881 20.6137 100.91 20.7359 100.91 20.8597Z" fill="#1993CE"/>
<path opacity="0.7" d="M100.91 20.8597C100.908 20.9908 100.877 21.1199 100.819 21.2375L100.154 22.5515C100.094 22.6759 100.002 22.7823 99.8882 22.8601C99.7743 22.9379 99.6425 22.9855 99.5051 22.9984L98.6486 23.0516H98.3507C98.1931 23.0582 98.0366 23.0214 97.8985 22.9452C97.7722 22.8711 97.6662 22.7669 97.5899 22.6419L96.9781 21.4822C96.9117 21.3676 96.8786 21.2368 96.8824 21.1045C96.8808 21.007 96.8952 20.91 96.9249 20.8172L97.6325 19.4127C97.6912 19.2874 97.7832 19.1807 97.8985 19.1041C98.0167 19.0223 98.1542 18.9728 98.2975 18.9605H98.638L99.4306 18.9126C99.5899 18.9067 99.7479 18.9434 99.8882 19.019C100.019 19.098 100.128 19.2098 100.202 19.3435L100.824 20.5033C100.881 20.6137 100.91 20.7359 100.91 20.8597Z" fill="white"/>
<path opacity="0.5" d="M99.2764 20.1894L98.4837 20.2373L98.0847 21.03L98.4837 21.7748L99.2764 21.7269L99.6754 20.9342L99.2764 20.1894Z" fill="#1993CE"/>
<path opacity="0.5" d="M100.91 20.8597L99.6754 20.9342L99.2764 20.1894L99.8775 18.9977C100.009 19.0767 100.117 19.1886 100.191 19.3223L100.814 20.482C100.877 20.5978 100.91 20.7278 100.91 20.8597Z" fill="white"/>
<path opacity="0.5" d="M99.8881 22.876C99.7742 22.9538 99.6424 23.0014 99.5051 23.0143L98.6486 23.0675H98.3506C98.193 23.0741 98.0366 23.0373 97.8984 22.9611L98.4943 21.7694L99.2923 21.7216L99.8881 22.876Z" fill="white"/>
<path opacity="0.5" d="M98.4784 20.216L98.0847 21.0087L96.8558 21.0831C96.8543 20.9857 96.8686 20.8887 96.8984 20.7959L97.606 19.3914C97.6647 19.2661 97.7567 19.1594 97.872 19.0828L98.4784 20.216Z" fill="white"/>
<path d="M132.314 74.4481C131.468 75.6132 130.292 78.9754 127.526 82.1355C125.446 84.5401 121.232 88.8653 119.423 90.5145C117.082 92.6425 116.034 93.3979 114.13 94.9514C112.693 96.1271 111.316 97.7337 107.996 98.2498C106.107 98.5424 102.899 98.021 101.947 95.1589C101.415 93.515 102.479 93.3128 105.549 92.0626C108.677 90.7805 109.273 90.3283 110.007 89.2271C110.121 88.397 110.162 87.5585 110.129 86.7213C110.028 86.2638 109.805 86.0457 109.438 86.067L109.501 85.4179C110.028 85.5773 110.532 85.8025 111.002 86.0883C112.199 86.7852 113.188 87.4342 115.55 84.072C117.63 81.0981 118.407 76.9911 121.402 73.549C124.397 70.107 132.314 74.4481 132.314 74.4481Z" fill="#1993CE"/>
<path d="M81.0553 49.1196C81.0553 49.1196 76.4695 48.1886 73.187 50.0985C70.4898 51.6945 68.9736 53.2905 67.6862 57.1262C63.7706 61.9461 56.1737 71.6604 54.184 76.0441C53.652 77.1826 53.0455 77.954 53.2636 78.9807C53.4232 79.7575 53.8754 80.2203 54.8011 81.1087L63.9302 78.6296C66.6275 75.7249 72.5646 70.0165 75.9694 65.2126L76.5918 67.5321C78.1573 66.569 79.4698 65.2457 80.4202 63.6726C81.3706 62.0994 81.9313 60.3219 82.0555 58.4881C82.5343 50.955 81.0553 49.1196 81.0553 49.1196Z" fill="#1993CE"/>
<path d="M53.801 80.066C54.8012 81.0981 56.4291 83.4708 59.5839 86.2053C61.9885 88.2907 67.2606 91.4136 69.2503 92.5893C71.9795 94.1853 73.0169 94.962 75.1023 96.2335C76.6983 97.1911 80.1989 99.0318 83.5558 99.069C85.4657 99.069 87.9341 97.8667 89.4557 94.9514C90.2324 93.4618 87.8224 92.4935 84.5719 91.9509C80.5181 91.2752 79.736 90.3975 78.7199 89.8601C78.3961 89.6817 78.1443 89.3964 78.0075 89.0529C77.8706 88.7094 77.8573 88.3291 77.9698 87.9768L78.3741 86.7107C78.2198 86.599 77.8421 86.7107 76.9111 87.4448C75.8471 88.3067 75.1874 88.7482 72.0912 86.051C69.2131 83.54 68.1225 80.8214 64.6432 77.8476C61.1639 74.8737 53.801 80.066 53.801 80.066Z" fill="#1993CE"/>
<path opacity="0.15" d="M75.9695 65.2019L76.5919 67.5214C77.1159 67.2145 77.6093 66.8582 78.0656 66.4574C77.9514 65.6977 77.9949 64.9227 78.1932 64.1805C78.6454 62.6483 78.3741 62.0206 78.3741 62.0206C77.6823 63.1597 76.8767 64.2256 75.9695 65.2019Z" fill="black"/>
<path opacity="0.15" d="M64.6911 77.8369C63.8865 77.3927 63.0001 77.1166 62.0857 77.0251C61.1712 76.9337 60.2477 77.0289 59.3711 77.3049C59.3711 77.3049 61.4991 74.9907 65.7923 76.6346L64.6911 77.8369Z" fill="black"/>
<path d="M97.0845 48.3588C98.2655 49.1994 101.085 51.1731 101.835 53.0564C102.367 54.3119 102.218 55.8866 101.303 56.6527C100.846 57.0304 102.67 59.7383 103.554 68.7291C104.149 74.7832 104.112 82.2898 104.112 82.2898C104.112 82.2898 108.209 81.928 110.416 80.3586C110.459 79.8266 113.252 65.4626 110.895 58.2912C110.155 56.0433 108.922 53.9893 107.285 52.2799C105.648 50.5705 103.65 49.2489 101.436 48.412C101.436 48.412 98.755 48.2577 97.0845 48.3588Z" fill="#455A64"/>
<path d="M110.736 78.3104C109.182 78.8903 107.219 79.417 106.437 79.6191C106.756 65.9999 103.969 58.1263 103.559 57.041C104.079 56.0963 104.308 55.0193 104.219 53.9448C103.958 51.9019 102.431 49.9442 99.867 48.3375C99.5318 48.3375 99.1647 48.3375 98.803 48.3375C101.702 49.9335 103.431 51.9445 103.692 54.0246C103.78 55.0213 103.553 56.0204 103.043 56.8814C103.023 56.9202 103.013 56.963 103.013 57.0065C103.013 57.0499 103.023 57.0927 103.043 57.1315C103.075 57.2113 106.325 65.2285 105.926 79.9756C105.925 80.016 105.933 80.0563 105.949 80.0933C105.966 80.1302 105.991 80.1628 106.022 80.1884C106.071 80.2263 106.131 80.2469 106.192 80.2469H106.256C106.389 80.2096 108.735 79.6244 110.667 78.9328C110.656 78.736 110.698 78.5285 110.736 78.3104Z" fill="#FAFAFA"/>
<path d="M97.1432 201.346C97.6752 198.835 99.1435 197.01 104.059 197.846C110.975 199.011 115.37 197.877 117.019 194.345C118.939 190.227 116.646 185.258 107.214 186.184C98.6222 187.025 93.0255 186.53 90.9561 183.061C90.9561 183.061 91.2593 186.53 97.3933 188.264C105.15 190.451 109.789 188.009 112.289 191.185C112.901 191.956 112.864 194.345 110.693 195.217C109.39 195.749 107.038 195.787 104.469 195.515C97.6912 194.792 96.5208 199.5 97.1432 201.346Z" fill="#1993CE"/>
<path d="M53.78 197.819C53.4154 197.823 53.0537 197.754 52.716 197.617C51.5615 197.085 50.9285 195.973 50.9285 194.382C50.9185 194.072 50.9805 193.765 51.1098 193.483C51.239 193.202 51.4319 192.954 51.6733 192.76C51.8885 192.596 52.1439 192.493 52.4126 192.462C52.6813 192.431 52.9533 192.473 53.2001 192.584C53.6043 192.783 53.9415 193.097 54.1702 193.485C54.3989 193.873 54.5092 194.32 54.4875 194.77C54.5052 195.027 54.4346 195.282 54.2875 195.493C54.1404 195.704 53.9257 195.858 53.6789 195.93C53.4933 195.968 53.3003 195.94 53.1333 195.85C52.9662 195.761 52.8356 195.616 52.7639 195.441C52.6628 195.212 52.6043 195.037 52.9926 194.84C53.381 194.643 53.4076 194.808 53.5246 194.967C53.5519 194.905 53.5647 194.838 53.5619 194.77C53.5788 194.483 53.5176 194.196 53.3845 193.94C53.2515 193.684 53.0518 193.469 52.8064 193.318C52.7619 193.29 52.7103 193.275 52.6575 193.275C52.6047 193.275 52.553 193.29 52.5085 193.318C52.3952 193.441 52.3076 193.585 52.2509 193.742C52.1943 193.899 52.1697 194.066 52.1787 194.233C52.1787 195.451 52.7107 196.441 53.5033 196.803C53.6264 196.863 53.763 196.891 53.8999 196.884C54.0369 196.877 54.1697 196.834 54.2854 196.76C54.491 196.581 54.6502 196.355 54.7493 196.101C54.8484 195.848 54.8846 195.573 54.8546 195.302C54.8546 193.425 53.7108 191.935 52.6043 190.514L52.4553 190.318C51.8488 189.525 51.3381 188.897 50.7901 188.232C50.2422 187.567 49.6623 186.854 48.9813 185.961C46.731 183.024 46.6405 180.997 47.247 180.151C48.1674 178.874 49.6463 178.151 51.8541 179.342C53.9396 180.47 56.2112 181.843 57.105 182.949C58.169 184.253 57.3444 185.141 56.823 186.322C56.6049 186.822 56.8603 187.083 57.2699 187.503C57.4748 187.715 57.6262 187.972 57.7115 188.253C57.9509 188.328 57.5678 188.679 57.4987 188.918C57.4663 189.029 57.3934 189.122 57.2946 189.18C57.1958 189.239 57.0786 189.257 56.9667 189.232C56.7109 189.154 56.4737 189.025 56.2697 188.852C56.0657 188.679 55.8991 188.466 55.7803 188.227C55.6507 187.91 55.5925 187.568 55.61 187.226C55.6275 186.884 55.7201 186.55 55.8814 186.248C56.3602 185.152 56.4559 184.721 55.7324 183.822C55.0089 182.923 53.0033 181.779 51.0774 180.763C50.1517 180.279 48.5238 179.928 48.0078 180.646C47.6407 181.178 48.3536 182.55 50.2901 185.072C50.9604 185.955 51.4977 186.62 52.0457 187.291C52.5936 187.961 53.1416 188.706 53.7534 189.504L53.9023 189.701C55.0461 191.19 56.1633 193.089 56.1633 195.276C56.1326 195.734 55.9924 196.178 55.7545 196.57C55.5166 196.963 55.1879 197.292 54.7961 197.532C54.4883 197.715 54.138 197.814 53.78 197.819Z" fill="#1993CE"/>
<path d="M53.78 197.819C53.4154 197.823 53.0537 197.754 52.716 197.617C51.5615 197.085 50.9285 195.973 50.9285 194.382C50.9185 194.072 50.9805 193.765 51.1098 193.483C51.239 193.202 51.4319 192.954 51.6733 192.76C51.8885 192.596 52.1439 192.493 52.4126 192.462C52.6813 192.431 52.9533 192.473 53.2001 192.584C53.6043 192.783 53.9415 193.097 54.1702 193.485C54.3989 193.873 54.5092 194.32 54.4875 194.77C54.5052 195.027 54.4346 195.282 54.2875 195.493C54.1404 195.704 53.9257 195.858 53.6789 195.93C53.4933 195.968 53.3003 195.94 53.1333 195.85C52.9662 195.761 52.8356 195.616 52.7639 195.441C52.6628 195.212 52.6043 195.037 52.9926 194.84C53.381 194.643 53.4076 194.808 53.5246 194.967C53.5519 194.905 53.5647 194.838 53.5619 194.77C53.5788 194.483 53.5176 194.196 53.3845 193.94C53.2515 193.684 53.0518 193.469 52.8064 193.318C52.7619 193.29 52.7103 193.275 52.6575 193.275C52.6047 193.275 52.553 193.29 52.5085 193.318C52.3952 193.441 52.3076 193.585 52.2509 193.742C52.1943 193.899 52.1697 194.066 52.1787 194.233C52.1787 195.451 52.7107 196.441 53.5033 196.803C53.6264 196.863 53.763 196.891 53.8999 196.884C54.0369 196.877 54.1697 196.834 54.2854 196.76C54.491 196.581 54.6502 196.355 54.7493 196.101C54.8484 195.848 54.8846 195.573 54.8546 195.302C54.8546 193.425 53.7108 191.935 52.6043 190.514L52.4553 190.318C51.8488 189.525 51.3381 188.897 50.7901 188.232C50.2422 187.567 49.6623 186.854 48.9813 185.961C46.731 183.024 46.6405 180.997 47.247 180.151C48.1674 178.874 49.6463 178.151 51.8541 179.342C53.9396 180.47 56.2112 181.843 57.105 182.949C58.169 184.253 57.3444 185.141 56.823 186.322C56.6049 186.822 56.8603 187.083 57.2699 187.503C57.4748 187.715 57.6262 187.972 57.7115 188.253C57.9509 188.328 57.5678 188.679 57.4987 188.918C57.4663 189.029 57.3934 189.122 57.2946 189.18C57.1958 189.239 57.0786 189.257 56.9667 189.232C56.7109 189.154 56.4737 189.025 56.2697 188.852C56.0657 188.679 55.8991 188.466 55.7803 188.227C55.6507 187.91 55.5925 187.568 55.61 187.226C55.6275 186.884 55.7201 186.55 55.8814 186.248C56.3602 185.152 56.4559 184.721 55.7324 183.822C55.0089 182.923 53.0033 181.779 51.0774 180.763C50.1517 180.279 48.5238 179.928 48.0078 180.646C47.6407 181.178 48.3536 182.55 50.2901 185.072C50.9604 185.955 51.4977 186.62 52.0457 187.291C52.5936 187.961 53.1416 188.706 53.7534 189.504L53.9023 189.701C55.0461 191.19 56.1633 193.089 56.1633 195.276C56.1326 195.734 55.9924 196.178 55.7545 196.57C55.5166 196.963 55.1879 197.292 54.7961 197.532C54.4883 197.715 54.138 197.814 53.78 197.819Z" fill="#455A64"/>
<path d="M57.7115 188.243C57.6262 187.961 57.4748 187.704 57.2699 187.493C56.8603 187.072 56.6049 186.812 56.823 186.312C57.1635 185.54 57.6263 184.891 57.6157 184.184L56.6581 184.716C56.6551 185.2 56.5287 185.676 56.291 186.099C56.1036 186.501 56.0161 186.943 56.0357 187.386C56.0401 187.625 56.0926 187.86 56.1899 188.078C56.3114 188.317 56.4794 188.529 56.6841 188.701C56.8887 188.874 57.1259 189.004 57.3816 189.083C57.4268 189.03 57.4612 188.969 57.4827 188.903C57.5678 188.668 57.9509 188.328 57.7115 188.243Z" fill="#263238"/>
<path d="M55.0886 197.298C55.4023 197.056 55.6599 196.749 55.8435 196.398C56.0272 196.047 56.1327 195.661 56.1526 195.265C56.1526 193.079 55.0354 191.18 53.8916 189.69L53.7427 189.493C53.1309 188.695 52.5882 187.95 52.0349 187.28C51.4817 186.61 50.9709 185.945 50.2793 185.062C48.3482 182.545 47.6193 181.157 47.9971 180.635C47.7549 180.927 47.594 181.277 47.5305 181.651C47.467 182.024 47.5031 182.408 47.6353 182.763C48.0554 183.828 48.6328 184.823 49.3483 185.716C50.0293 186.61 50.6039 187.312 51.1571 187.988C51.7104 188.663 52.2211 189.286 52.8223 190.073L52.9713 190.27C54.0778 191.706 55.195 193.196 55.2216 195.058C55.2216 195.744 55.2216 196.654 54.7641 197.186C54.614 197.396 54.4106 197.561 54.1749 197.666C53.9392 197.771 53.6797 197.811 53.4235 197.782C53.7426 197.823 54.0669 197.798 54.3757 197.707C54.6407 197.625 54.8842 197.485 55.0886 197.298Z" fill="#263238"/>
<path d="M54.8494 195.446C54.8671 195.69 54.8283 195.936 54.7361 196.163C54.6438 196.39 54.5006 196.592 54.3174 196.755C54.2017 196.829 54.069 196.871 53.932 196.879C53.795 196.886 53.6584 196.858 53.5354 196.797C52.7161 196.436 52.2107 195.446 52.2107 194.228C52.2017 194.061 52.2263 193.894 52.283 193.737C52.3396 193.58 52.4272 193.436 52.5405 193.313C52.585 193.284 52.6367 193.269 52.6895 193.269C52.7423 193.269 52.794 193.284 52.8384 193.313C52.3969 192.935 51.684 193.265 51.4712 193.845C51.2926 194.409 51.3038 195.016 51.5031 195.574C51.6787 196.18 52.5671 197.569 53.663 197.372C54.759 197.175 54.8494 196.079 54.8494 195.446Z" fill="#263238"/>
<path d="M53.5247 194.978C53.4129 194.813 53.2799 194.781 53.1682 194.84C53.0704 194.877 52.9842 194.939 52.9182 195.021C52.7958 195.244 53.3119 195.595 53.5247 194.978Z" fill="#263238"/>
<path opacity="0.1" d="M48.1036 180.529C48.0768 180.536 48.0527 180.551 48.0345 180.571L47.9866 180.63C48.0217 180.592 48.0609 180.558 48.1036 180.529Z" fill="black"/>
<path d="M73.0702 208.821C73.1446 208.715 73.2121 208.605 73.2724 208.491C73.2897 208.462 73.304 208.432 73.315 208.4C73.3625 208.308 73.4033 208.212 73.4373 208.113C73.4495 208.083 73.4602 208.053 73.4692 208.023C73.5111 207.903 73.5431 207.78 73.565 207.656C73.5862 207.533 73.5969 207.408 73.5969 207.283C73.5969 207.246 73.5969 207.209 73.5969 207.171C73.6024 207.085 73.6024 206.998 73.5969 206.911C73.5995 206.865 73.5995 206.819 73.5969 206.772C73.5806 206.69 73.5593 206.608 73.5331 206.528C73.5231 206.484 73.5107 206.442 73.4958 206.4C73.4581 206.281 73.41 206.165 73.3522 206.054L73.2884 205.942L73.1394 205.698L73.033 205.554L72.9585 205.448C72.9151 205.402 72.8743 205.354 72.8362 205.304L72.767 205.23C71.9555 204.299 70.954 203.552 69.8299 203.041C68.7057 202.529 67.485 202.265 66.25 202.265C65.015 202.265 63.7943 202.529 62.6702 203.041C61.546 203.552 60.5445 204.299 59.733 205.23L59.6798 205.293L59.5468 205.442C59.5149 205.48 59.4936 205.522 59.467 205.559C59.4304 205.602 59.3966 205.646 59.3659 205.692C59.3074 205.778 59.2595 205.863 59.2063 205.953L59.1584 206.044C59.0994 206.159 59.0479 206.278 59.0042 206.4L58.9722 206.512C58.9454 206.599 58.924 206.688 58.9084 206.778C58.9054 206.818 58.9054 206.859 58.9084 206.9C58.9029 206.992 58.9029 207.085 58.9084 207.177C58.9084 207.209 58.9084 207.241 58.9084 207.272C58.9143 207.529 58.9573 207.784 59.0361 208.028C59.0338 208.054 59.0338 208.081 59.0361 208.108C59.0731 208.211 59.1158 208.312 59.1638 208.411L59.2063 208.491C59.2664 208.611 59.3357 208.727 59.4138 208.837C59.5052 208.967 59.6047 209.091 59.7117 209.209C59.8128 209.315 59.9192 209.422 60.0309 209.523L60.116 209.592C60.2224 209.682 60.3342 209.773 60.4512 209.858L60.5363 209.922C60.6906 210.028 60.8449 210.129 61.0151 210.225C63.8986 211.896 68.5855 211.896 71.4689 210.225C71.6321 210.133 71.7902 210.031 71.9424 209.922L72.0382 209.853C72.1552 209.768 72.2616 209.682 72.3627 209.597L72.4531 209.518C72.5611 209.424 72.6641 209.324 72.7617 209.22L72.7989 209.182C72.9025 209.067 73.0002 208.946 73.0915 208.821H73.0702Z" fill="#37474F"/>
<g opacity="0.3">
<path d="M67.2874 204.714C66.9895 204.788 67.5854 205.905 68.2291 207.879C68.5642 208.943 68.7611 210.422 70.4475 209.587C72.0435 208.821 70.7029 207.012 69.4899 205.863C68.41 204.82 67.6173 204.634 67.2874 204.714Z" fill="#1993CE"/>
<path d="M67.5643 204.033C68.6018 204.352 69.5398 204.933 70.2881 205.719C71.1393 206.512 71.799 207.517 72.1182 207.645C72.4374 207.773 72.6502 206.389 72.1182 205.692C71.4507 204.839 70.5483 204.199 69.522 203.852C68.4314 203.522 67.3089 203.894 67.5643 204.033Z" fill="#1993CE"/>
<path d="M66.2022 210.582C64.5743 210.582 64.2977 210.289 64.9254 207.656C65.2553 206.267 65.9309 204.873 66.2022 204.873C66.4735 204.873 67.1545 206.267 67.4843 207.656C68.0961 210.289 67.8355 210.582 66.2022 210.582Z" fill="#1993CE"/>
<path d="M65.117 204.714C65.4202 204.788 64.8244 205.905 64.1807 207.879C63.8402 208.943 63.6487 210.422 61.9622 209.587C60.3662 208.821 61.7069 207.012 62.9198 205.863C63.9998 204.82 64.7925 204.634 65.117 204.714Z" fill="#1993CE"/>
<path d="M64.835 204.033C63.8004 204.355 62.8649 204.935 62.1165 205.719C61.2653 206.512 60.6056 207.517 60.2864 207.645C59.9672 207.773 59.7544 206.389 60.2864 205.692C60.954 204.839 61.8563 204.199 62.8826 203.852C63.9732 203.522 65.101 203.894 64.835 204.033Z" fill="#1993CE"/>
</g>
<path opacity="0.3" d="M65.2818 205.847C67.8354 206.32 70.3252 206.102 73.1767 205.847L73.0916 205.708L72.9852 205.565L72.9107 205.458C72.8673 205.413 72.8264 205.365 72.7883 205.315L72.7192 205.24C71.2414 203.543 69.1588 202.49 66.9157 202.306C64.6726 202.122 62.4464 202.822 60.7119 204.256C62.1383 205.032 63.682 205.569 65.2818 205.847Z" fill="black"/>
<path d="M61.1801 185.008C56.2591 186.647 54.7163 191.02 55.4824 194.765C56.2485 198.51 59.1266 202.628 65.5904 203.809C72.0542 204.99 78.2254 201.718 90.8498 204.442C92.9299 204.889 95.0738 205.506 95.6697 205.049C96.2655 204.591 96.0421 203.575 94.9834 202.782C94.2066 202.272 93.3537 201.887 92.4564 201.644C90.2433 200.974 82.6676 200.106 79.5448 196.436C77.4168 193.957 77.2997 189.424 73.7779 187.009C69.5698 184.146 65.218 183.657 61.1801 185.008Z" fill="#455A64"/>
<path opacity="0.05" d="M74.5546 192.509C71.4796 195.914 67.0215 196.766 62.6271 196.68C62.2388 196.68 61.7227 196.776 61.7068 197.159C61.7176 197.257 61.7481 197.351 61.7966 197.436C61.8451 197.521 61.9105 197.595 61.9887 197.654C64.1167 199.676 67.2662 200.229 70.2028 200.186C73.1395 200.144 75.6452 199.707 78.9861 199.787C79.7895 199.787 80.6885 199.947 81.4865 200.032C82.2845 200.117 83.4549 200.367 83.8805 200.106C84.3061 199.846 82.8165 199.452 82.3909 199.33C80.8365 198.852 79.4312 197.981 78.3105 196.803C77.7414 196.268 77.2681 195.64 76.9114 194.946C76.5549 194.175 76.3315 193.35 75.9218 192.6C75.7622 192.302 75.5015 191.988 75.1664 192.031C74.9487 192.09 74.7598 192.226 74.6344 192.414L74.5546 192.509Z" fill="white"/>
<path opacity="0.1" d="M91.435 203.224C90.2912 202.405 84.8223 200.873 80.6301 200.787C75.624 200.681 68.4899 202.383 63.3401 200.665C55.1845 197.904 55.3282 191.993 55.6314 190.456C55.2223 191.857 55.1638 193.337 55.4612 194.765C56.2219 198.447 59.1054 202.628 65.5692 203.809C72.033 204.99 78.2042 201.718 90.8285 204.442C92.1412 204.789 93.4761 205.045 94.8239 205.208C94.1371 205.192 93.4659 205.001 92.8731 204.654C92.2803 204.307 91.7855 203.815 91.435 203.224Z" fill="black"/>
<path d="M66.2021 194.095C70.9475 194.095 74.7886 191.86 74.7886 189.105C74.7725 188.501 74.5882 187.913 74.2566 187.408C74.097 187.28 73.9374 187.152 73.7671 187.035C69.8357 184.338 65.7871 183.737 61.9514 184.769C59.3553 185.625 57.605 187.243 57.605 189.105C57.6209 191.86 61.462 194.095 66.2021 194.095Z" fill="#37474F"/>
<path d="M73.5598 186.626L73.3789 186.423C72.4904 185.388 71.3886 184.557 70.149 183.987C68.9094 183.418 67.5612 183.123 66.1969 183.123C64.8327 183.123 63.4845 183.418 62.2449 183.987C61.0053 184.557 59.9034 185.388 59.0149 186.423L58.8394 186.626C57.4455 188.36 57.9882 190.488 60.4354 191.914C63.6274 193.738 68.7346 193.738 71.8947 191.914C74.411 190.488 74.9537 188.36 73.5598 186.626Z" fill="#455A64"/>
<path d="M67.0906 182.667C67.0837 182.589 67.0559 182.514 67.01 182.451C66.9641 182.387 66.9019 182.337 66.8299 182.306C66.6367 182.206 66.4223 182.154 66.2048 182.154C65.9873 182.154 65.773 182.206 65.5797 182.306C65.5074 182.337 65.4449 182.387 65.399 182.45C65.353 182.514 65.3254 182.589 65.3191 182.667V184.934C65.3085 185.023 65.3271 185.113 65.3722 185.191C65.4173 185.269 65.4864 185.33 65.5691 185.365C65.7632 185.462 65.9772 185.512 66.1942 185.512C66.4112 185.512 66.6252 185.462 66.8193 185.365C66.902 185.33 66.9711 185.269 67.0162 185.191C67.0613 185.113 67.0799 185.023 67.0693 184.934L67.0906 182.667Z" fill="#37474F"/>
<path opacity="0.1" d="M67.0907 182.774C67.0884 182.726 67.0757 182.678 67.0535 182.636C66.8922 182.463 66.6828 182.342 66.4523 182.29C66.3708 182.284 66.2891 182.284 66.2076 182.29C66.1261 182.284 66.0443 182.284 65.9629 182.29C65.7324 182.342 65.523 182.463 65.3617 182.636C65.3388 182.678 65.326 182.726 65.3245 182.774V184.173C65.4406 184.29 65.5787 184.382 65.7307 184.445C65.8827 184.508 66.0456 184.541 66.2102 184.541C66.3748 184.541 66.5378 184.508 66.6898 184.445C66.8418 184.382 66.9799 184.29 67.096 184.173L67.0907 182.774Z" fill="black"/>
<path d="M66.2022 184.115C67.0396 184.115 67.7184 183.436 67.7184 182.598C67.7184 181.761 67.0396 181.082 66.2022 181.082C65.3649 181.082 64.686 181.761 64.686 182.598C64.686 183.436 65.3649 184.115 66.2022 184.115Z" fill="#455A64"/>
<path opacity="0.5" d="M65.436 182.247C65.436 182.545 65.5543 182.83 65.7648 183.041C65.9753 183.251 66.2608 183.37 66.5586 183.37C66.8563 183.37 67.1418 183.251 67.3523 183.041C67.5628 182.83 67.6811 182.545 67.6811 182.247C67.6152 181.977 67.4761 181.73 67.279 181.534C67.0818 181.338 66.8344 181.2 66.5639 181.135C66.2671 181.134 65.9818 181.25 65.7704 181.458C65.5591 181.667 65.4388 181.95 65.436 182.247Z" fill="#1993CE"/>
<path opacity="0.3" d="M67.6759 182.242C67.677 182.464 67.612 182.682 67.4893 182.867C67.3666 183.052 67.1917 183.197 66.9867 183.283C66.7817 183.369 66.5558 183.392 66.3377 183.349C66.1196 183.306 65.9191 183.2 65.7616 183.043C65.604 182.886 65.4966 182.686 65.4529 182.468C65.4091 182.25 65.431 182.024 65.5158 181.819C65.6006 181.613 65.7445 181.438 65.9292 181.314C66.1139 181.191 66.3312 181.125 66.5534 181.125C66.248 181.052 65.9275 181.076 65.6364 181.193C65.3452 181.311 65.098 181.516 64.929 181.781C64.76 182.046 64.6776 182.356 64.6933 182.67C64.709 182.983 64.822 183.284 65.0166 183.531C65.2113 183.777 65.4778 183.957 65.7792 184.045C66.0806 184.133 66.402 184.124 66.6985 184.021C66.9951 183.918 67.2522 183.725 67.434 183.469C67.6158 183.213 67.7134 182.907 67.7132 182.593C67.7138 182.475 67.7013 182.357 67.6759 182.242Z" fill="#1993CE"/>
<path d="M92.8181 202.692C92.3393 202.878 92.4457 203.426 93.0575 203.921C93.3241 204.157 93.6405 204.33 93.9832 204.426C94.3258 204.523 94.6859 204.541 95.0365 204.479C95.5153 204.293 95.4089 203.74 94.7971 203.251C94.5307 203.014 94.2143 202.841 93.8716 202.745C93.5289 202.648 93.1687 202.63 92.8181 202.692Z" fill="#1993CE"/>
<path d="M92.8181 202.692C92.3393 202.878 92.4457 203.426 93.0575 203.921C93.3241 204.157 93.6405 204.33 93.9832 204.426C94.3258 204.523 94.6859 204.541 95.0365 204.479C95.5153 204.293 95.4089 203.74 94.7971 203.251C94.5307 203.014 94.2143 202.841 93.8716 202.745C93.5289 202.648 93.1687 202.63 92.8181 202.692Z" fill="#263238"/>
<path opacity="0.3" d="M67.4844 185.79C67.128 185.881 67.8302 187.195 68.5856 189.514C68.9846 190.743 69.1974 192.509 71.2031 191.525C73.0438 190.621 71.501 188.493 70.0699 187.131C68.8038 185.929 67.8674 185.695 67.4844 185.79Z" fill="#1993CE"/>
<path opacity="0.3" d="M67.8142 184.987C68.0004 185.083 69.1548 185.237 71.0062 186.977C72.0063 187.913 72.7884 189.105 73.1342 189.243C73.48 189.381 73.7672 187.764 73.1342 186.945C72.3515 185.937 71.2894 185.182 70.0805 184.774C68.8303 184.391 67.5003 184.827 67.8142 184.987Z" fill="#1993CE"/>
<path opacity="0.3" d="M66.2022 192.701C64.2817 192.701 63.9572 192.355 64.6967 189.254C65.0904 187.62 65.8777 185.977 66.2022 185.977C66.5268 185.977 67.3194 187.62 67.7131 189.254C68.4526 192.355 68.1281 192.701 66.2022 192.701Z" fill="#1993CE"/>
<path opacity="0.3" d="M64.9042 185.79C65.2606 185.881 64.5584 187.195 63.803 189.514C63.404 190.743 63.1858 192.509 61.1855 191.525C59.3395 190.621 60.8876 188.493 62.3187 187.131C63.6061 185.929 64.5424 185.695 64.9042 185.79Z" fill="#1993CE"/>
<path opacity="0.3" d="M64.5955 184.987C64.4093 185.083 63.2549 185.237 61.4035 186.977C60.4034 187.913 59.6213 189.105 59.2489 189.243C58.8765 189.381 58.6158 187.764 59.2489 186.945C60.0315 185.937 61.0936 185.182 62.3026 184.774C63.5794 184.391 64.9041 184.827 64.5955 184.987Z" fill="#1993CE"/>
<path d="M191.988 110.06C194.909 109.411 198.197 111.497 200.42 116.152C202.548 120.615 208.709 131.835 208.847 134.984C208.996 138.251 195.696 148.423 196.079 148.247C196.196 148.194 193.105 141.959 193.105 141.959L200.431 134.66L196.037 126.02L191.988 110.06Z" fill="#FFA8A7"/>
<path d="M190.456 109.363C192.914 109.06 197.372 109.991 199.08 112.949C201.548 117.232 203.612 121.179 206.815 127.132C206.815 127.132 204.639 131.718 198.511 132.154L195.664 126.749L190.456 109.363Z" fill="#37474F"/>
<path d="M195.276 215.737C195.664 215.896 195.744 216.641 195.771 218.115C195.771 219.237 195.984 221.19 194.67 221.551C193.356 221.913 191.44 221.668 190.626 220.594C189.61 219.258 188.929 218.088 187.472 216.449C186.205 215.029 184.812 213.699 184.354 211.736C183.923 209.964 184.354 209.209 185.546 208.725C187.216 208.055 189.759 210.417 191.047 210.81C192.159 211.145 194.888 215.582 195.276 215.737Z" fill="#263238"/>
<path d="M195.308 214.396L195.265 216.205C195.265 216.205 193.35 217.609 190.685 216.205C190.61 216.029 190.265 213.603 190.265 213.603L195.308 214.396Z" fill="#FFA8A7"/>
<path d="M180.348 225.85C180.348 225.85 180.832 227.446 181.082 228.824C181.279 229.925 181.561 231.76 181.157 232.58C180.752 233.399 179.247 233.888 176.927 233.819C175.427 233.777 173.06 234.745 171.437 235.602C169.814 236.458 166.309 236.777 164.558 236.533C162.499 236.245 160.393 235 160.074 234.139C159.754 233.277 160.222 232.399 165.138 230.415C165.181 230.415 171.948 228.361 174.358 225.818L180.348 225.85Z" fill="#263238"/>
<path d="M180.412 223.892C180.412 223.892 180.375 225.238 180.364 226.02C180.353 226.802 179.417 227.914 177.071 227.776C175.422 227.68 174.278 227.212 174.374 225.855L174.422 223.898L180.412 223.892Z" fill="#FFA8A7"/>
<path d="M197.026 190.35C196.695 187.138 196.05 183.966 195.1 180.88C195.1 180.88 195.93 172.756 196.415 165.042C196.947 156.711 196.819 146.22 197.026 144.145C197.026 144.145 171.187 138.176 170.49 147.806C169.703 158.637 170.538 182.497 170.698 185.514C170.921 189.77 170.932 194.169 171.65 201.053C172.363 207.847 174.422 223.898 174.422 223.898C177.459 225.627 180.412 223.898 180.412 223.898C180.412 223.898 182.737 204.666 182.652 199.777C182.586 196.153 182.05 192.553 181.056 189.067L184.248 162.223C184.248 162.223 184.567 174.161 184.78 178.406C184.992 182.652 185.588 185.237 186.636 193.127C187.541 199.979 190.36 214.486 190.36 214.486C193.398 216.215 195.276 214.38 195.276 214.38C195.276 214.38 197.723 196.308 197.026 190.35Z" fill="#37474F"/>
<path d="M193.595 156.594C193.595 156.594 190.467 160.802 186.439 162.606C186.439 162.606 184.689 177.39 184.705 177.097L184.248 162.201C184.248 162.201 190.264 159.424 193.595 156.594Z" fill="#263238"/>
<path d="M179.087 106.049L180.481 114.848L189.206 114.385L187.956 104.155L179.087 106.049Z" fill="#FFA8A7"/>
<path d="M196.159 114.449C195.425 112.05 193.09 108.938 190.052 109.432C189.35 109.544 189.328 109.544 188.658 109.661C188.296 111.145 183.833 112.406 179.949 111.491C178.779 111.8 177.706 112.115 176.731 112.438C173.938 113.369 171.363 115.705 170.926 124.807C170.926 124.807 170.16 145.837 170.293 151.524C177.209 154.429 183.396 154.487 187.413 153.705C195.776 152.072 197.154 148.492 197.154 148.492C197.154 148.492 197.452 132 197.351 125.403C197.266 119.796 196.659 116.098 196.159 114.449Z" fill="#14172C"/>
<path d="M173.219 95.2546C173.219 95.2546 171.139 98.4093 171.379 98.7179C171.618 99.0265 173.145 99.3084 173.145 99.3084L173.219 95.2546Z" fill="#F28F8F"/>
<path d="M178.991 86.5244C174.783 87.4129 173.57 89.2642 173.177 95.9462C172.762 102.931 173.475 105.128 174.39 106.054C175.012 106.687 178.454 106.799 180.188 106.32C182.364 105.724 187.275 103.985 189.573 100.468C192.281 96.3345 192.994 90.7326 190.105 88.4343C186.019 85.2157 180.705 86.184 178.991 86.5244Z" fill="#FFA8A7"/>
<path d="M179.162 106.533C179.913 106.395 180.654 106.209 181.38 105.974C180.82 106.598 180.074 107.025 179.252 107.193L179.162 106.533Z" fill="#F28F8F"/>
<path d="M172.325 89.11C172.644 89.4346 173.001 89.7187 173.389 89.9559C173.952 90.3213 174.538 90.6484 175.145 90.9347C175.737 91.1485 176.309 91.4156 176.853 91.7327C177.619 92.2647 177.715 92.9989 177.736 93.8607C177.736 94.4353 177.736 95.1482 177.736 95.9196C177.736 97.0793 178.486 97.9625 178.848 96.409C178.848 96.409 179.513 93.8235 181.689 94.148C183.864 94.4725 184.056 96.9251 183.019 98.8509C182.391 100.021 180.699 99.7181 180.699 99.7181C180.638 100.799 180.809 101.881 181.201 102.89C181.593 103.899 182.196 104.813 182.971 105.57C182.971 105.57 184.647 106.102 188.067 105.352C190.195 104.9 192.19 102.586 193.44 99.8032C196.1 93.914 196.271 88.6312 192.515 87.0352C192.105 84.322 189.967 83.1037 187.535 82.5451C183.891 81.7099 180.481 83.8698 176.895 83.0771C176.303 82.9547 175.717 82.802 175.14 82.6196C174.917 82.5117 174.662 82.4945 174.427 82.5717C174.299 82.6586 174.198 82.7806 174.138 82.9231C174.078 83.0656 174.06 83.2226 174.086 83.375C174.114 83.7241 174.225 84.0614 174.41 84.3585C174.595 84.6557 174.849 84.9041 175.15 85.0827C175.076 85.0349 174.73 85.1306 174.618 85.1413H174.012C173.617 85.1339 173.223 85.1055 172.831 85.0561C172.562 85.0055 172.286 85.0055 172.017 85.0561C171.723 85.1712 171.473 85.3773 171.305 85.6444C171.136 85.9115 171.058 86.2255 171.081 86.5404C171.145 87.1695 171.368 87.7719 171.73 88.2907C171.859 88.5089 172.005 88.717 172.166 88.9131L172.325 89.11Z" fill="#263238"/>
<path d="M192.611 87.9502L195.127 86.4659C195.036 86.2892 194.909 86.133 194.755 86.0069C194.602 85.8807 194.424 85.7873 194.232 85.7323C194.041 85.6772 193.841 85.6618 193.643 85.6869C193.446 85.7119 193.256 85.777 193.084 85.8781C192.913 85.9792 192.764 86.1141 192.647 86.2747C192.529 86.4354 192.446 86.6182 192.402 86.8122C192.357 87.0061 192.353 87.2071 192.389 87.4028C192.425 87.5984 192.5 87.7847 192.611 87.9502Z" fill="#263238"/>
<path d="M142.906 127.462C144.172 128.068 159.6 140.139 162.01 138.852C164.42 137.565 177.055 123.259 177.055 123.259C178.116 121.64 178.672 119.742 178.653 117.806C178.634 115.87 178.041 113.983 176.949 112.385C176.949 112.385 172.996 113.023 170.873 116.109C168.75 119.195 159.6 130.127 159.6 130.127C157.43 128.978 155.268 127.815 153.115 126.637C151.338 125.664 149.556 124.695 147.822 123.658C147.332 123.421 146.872 123.124 146.454 122.775C145.608 121.897 145.805 119.822 145.848 118.694C145.855 118.161 145.893 117.628 145.96 117.098C146.045 116.46 146.204 114.88 145.034 115.359C144.81 115.458 144.615 115.614 144.47 115.811C144.283 116.046 144.136 116.31 144.034 116.593C143.8 117.269 143.858 118.019 143.64 118.721C143.614 118.823 143.563 118.916 143.491 118.992C143.385 119.073 143.252 119.111 143.119 119.099C141.432 119.008 139.884 116.604 139.139 115.327C138.873 114.722 138.439 114.205 137.889 113.837C136.974 113.385 135.846 113.981 135.229 114.795C134.472 115.88 134.144 117.206 134.309 118.519C134.418 120.293 135.162 121.968 136.405 123.238C138.313 125.009 140.512 126.438 142.906 127.462Z" fill="#FFA8A7"/>
<path d="M178.22 111.975C176.523 112.13 173.709 112.193 170.889 115.252C167.585 118.822 162.5 125.892 162.5 125.892C162.768 127.528 163.465 129.063 164.519 130.342C165.573 131.621 166.947 132.599 168.5 133.176C168.5 133.176 176.411 126.036 178.076 122.796C179.742 119.556 180.151 114.226 178.22 111.975Z" fill="#37474F"/>
<path d="M178.997 72.884L177.512 70.091L178.709 66.6437V64.5157L175.049 66.6437V68.7717L176.645 71.4955C176.671 71.5367 176.708 71.5699 176.752 71.5913L178.997 72.884Z" fill="#14172C"/>
<path opacity="0.2" d="M178.997 72.884L177.512 70.091L178.709 66.6437V64.5157L175.049 66.6437V68.7717L176.645 71.4955C176.671 71.5367 176.708 71.5699 176.752 71.5913L178.997 72.884Z" fill="black"/>
<path d="M194.712 48.0981C194.692 47.7176 194.582 47.3473 194.391 47.0173C194.201 46.6873 193.935 46.4069 193.616 46.1989L192.722 45.6669C192.383 45.4936 192.007 45.4033 191.626 45.4033C191.245 45.4033 190.87 45.4936 190.53 45.6669L169.862 57.6103C169.543 57.8183 169.277 58.0987 169.087 58.4287C168.896 58.7587 168.787 59.129 168.766 59.5095V70.224C168.787 70.6045 168.896 70.9748 169.087 71.3048C169.277 71.6349 169.543 71.9153 169.862 72.1233L170.751 72.6553C171.09 72.8285 171.466 72.9188 171.847 72.9188C172.228 72.9188 172.603 72.8285 172.943 72.6553L177.348 70.1123L178.917 72.8308C178.94 72.8686 178.973 72.899 179.013 72.9187C179.052 72.9384 179.097 72.9465 179.14 72.942C179.184 72.9376 179.226 72.9208 179.261 72.8936C179.296 72.8663 179.322 72.8298 179.337 72.7883L180.997 68.0002L193.616 60.7119C193.939 60.5013 194.207 60.2167 194.397 59.8817C194.588 59.5467 194.696 59.1711 194.712 58.786V48.0981Z" fill="#14172C"/>
<path opacity="0.2" d="M168.766 70.224C168.787 70.6045 168.896 70.9748 169.087 71.3048C169.277 71.6349 169.543 71.9153 169.862 72.1233L170.751 72.6553C171.06 72.8094 171.399 72.897 171.744 72.9126C172.089 72.9282 172.434 72.8713 172.756 72.7457C172.224 72.9372 171.847 72.6446 171.847 72.0222V61.329C171.865 60.953 171.977 60.5874 172.171 60.265L169.086 58.4881C168.891 58.8103 168.782 59.1763 168.766 59.5521V70.224Z" fill="black"/>
<path opacity="0.2" d="M194.675 47.7842C194.547 47.3214 194.143 47.1724 193.611 47.465L172.937 59.4084C172.614 59.6103 172.348 59.8926 172.166 60.2277L169.085 58.4455C169.268 58.1104 169.533 57.8281 169.857 57.6262L190.525 45.6828C190.865 45.5125 191.24 45.4237 191.621 45.4237C192.001 45.4237 192.377 45.5125 192.717 45.6828L193.611 46.2148C193.884 46.3914 194.12 46.6214 194.303 46.891C194.486 47.1607 194.612 47.4645 194.675 47.7842Z" fill="white"/>
<path d="M177.89 61.4779C177.464 61.7548 177.109 62.1286 176.855 62.5687C176.601 63.0087 176.454 63.5027 176.427 64.0103C176.427 64.9413 177.082 65.319 177.89 64.8561C178.314 64.5774 178.667 64.2031 178.92 63.7633C179.173 63.3235 179.32 62.8305 179.348 62.3238C179.348 61.3875 178.694 61.0098 177.89 61.4779Z" fill="white"/>
<path d="M183.279 58.3551C182.853 58.6331 182.498 59.0079 182.244 59.4488C181.99 59.8897 181.843 60.3845 181.816 60.8927C181.816 61.8237 182.471 62.2014 183.279 61.7333C183.706 61.4564 184.06 61.0826 184.315 60.6426C184.569 60.2025 184.715 59.7085 184.742 59.201C184.742 58.27 184.072 57.8922 183.279 58.3551Z" fill="white"/>
<path d="M188.674 55.2376C188.248 55.5151 187.894 55.889 187.64 56.3289C187.385 56.7689 187.239 57.2625 187.211 57.7699C187.211 58.7009 187.865 59.0839 188.674 58.6158C189.099 58.3382 189.454 57.9643 189.708 57.5244C189.962 57.0844 190.109 56.5908 190.137 56.0834C190.137 55.1471 189.482 54.796 188.674 55.2376Z" fill="white"/>
</svg>
