<svg width="25" height="24" viewBox="0 0 25 24" fill="none" xmlns="http://www.w3.org/2000/svg">
<path fill-rule="evenodd" clip-rule="evenodd" d="M12.2861 1.21065C12.6472 0.929784 13.1529 0.929784 13.514 1.21065L22.514 8.21065C22.7576 8.4001 22.9 8.69141 22.9 9V20C22.9 20.7957 22.584 21.5587 22.0213 22.1213C21.4587 22.6839 20.6957 23 19.9 23H5.90002C5.10437 23 4.34131 22.6839 3.7787 22.1213C3.21609 21.5587 2.90002 20.7957 2.90002 20V9C2.90002 8.69141 3.0425 8.4001 3.28608 8.21065L12.2861 1.21065ZM4.90002 9.48908V20C4.90002 20.2652 5.00538 20.5196 5.19292 20.7071C5.38045 20.8946 5.63481 21 5.90002 21H19.9C20.1652 21 20.4196 20.8946 20.6071 20.7071C20.7947 20.5196 20.9 20.2652 20.9 20V9.48908L12.9 3.26686L4.90002 9.48908Z" fill="white"/>
<path fill-rule="evenodd" clip-rule="evenodd" d="M8.90002 12C8.90002 11.4477 9.34774 11 9.90002 11H15.9C16.4523 11 16.9 11.4477 16.9 12V22C16.9 22.5523 16.4523 23 15.9 23C15.3477 23 14.9 22.5523 14.9 22V13H10.9V22C10.9 22.5523 10.4523 23 9.90002 23C9.34774 23 8.90002 22.5523 8.90002 22V12Z" fill="white"/>
</svg>
