<svg width="90" height="90" viewBox="0 0 90 90" fill="none" xmlns="http://www.w3.org/2000/svg">
<g clip-path="url(#clip0_936_38)">
<g clip-path="url(#clip1_936_38)">
<g clip-path="url(#clip2_936_38)">
<g clip-path="url(#clip3_936_38)">
<g clip-path="url(#clip4_936_38)">
<path d="M45 71.3572C59.5566 71.3572 71.3571 59.5567 71.3571 45C71.3571 30.4434 59.5566 18.6429 45 18.6429C30.4433 18.6429 18.6428 30.4434 18.6428 45C18.6428 59.5567 30.4433 71.3572 45 71.3572Z" fill="#14172C"/>
<g clip-path="url(#clip5_936_38)">
<path d="M46.023 34.734C45.6052 34.6066 45.2896 34.248 45.0643 33.6562C44.8315 34.2413 44.51 34.592 44.0878 34.7088C42.8463 35.0524 42.3847 36.2735 42.5291 37.0231C42.5306 37.0318 42.5298 37.0404 42.5306 37.0491C42.531 37.0531 42.5334 37.0562 42.5342 37.0606C42.703 38.7728 43.4388 39.5122 44.9937 39.5319C46.5343 39.569 47.2855 38.8482 47.5092 37.1797C47.5096 37.1781 47.5108 37.1766 47.5108 37.175C47.5111 37.173 47.51 37.171 47.5104 37.1691C47.6583 36.253 47.1872 35.0883 46.023 34.734Z" fill="white"/>
<path d="M41.6934 36.5386C41.7821 35.4521 42.5598 34.2823 43.87 33.9202C44.0424 33.8724 44.2069 33.6353 44.3411 33.2589C44.4014 33.0897 44.3549 32.9051 44.2428 32.7638C44.0964 32.5792 44.0097 32.3468 44.0128 32.0931C44.0191 31.5996 44.362 31.1928 44.8204 31.0748C44.9459 31.7112 45.0938 32.1184 45.0938 32.1184C45.0938 32.1184 45.252 31.7163 45.3933 31.0851C45.8438 31.2177 46.1717 31.6307 46.1653 32.1207C46.1622 32.3768 46.0679 32.6095 45.9144 32.7914C45.7953 32.9327 45.7416 33.1213 45.8028 33.2956C45.9322 33.6649 46.0924 33.9 46.2612 33.9513C47.6117 34.3624 48.2883 35.5582 48.3495 36.6759C48.6169 36.5576 48.9444 36.3536 49.1949 36.0088C49.5946 35.4596 49.711 34.6895 49.5405 33.7197C49.1866 31.7069 47.4014 30.9297 46.0975 30.3619C45.8963 30.2743 45.7191 30.1954 45.5574 30.1181C45.5878 29.8546 45.6079 29.5748 45.6114 29.2849C45.6316 27.7162 45.1668 26.4384 45.1668 26.4384C45.1668 26.4384 44.6693 27.7036 44.6492 29.2722C44.6456 29.5504 44.6579 29.8187 44.6796 30.0727C44.4993 30.1576 44.2984 30.2416 44.0736 30.3343C42.7775 30.8681 41.0037 31.5992 40.5978 33.6045C40.4009 34.5759 40.4991 35.3456 40.8889 35.8924C41.1253 36.223 41.4361 36.4219 41.6934 36.5386Z" fill="white"/>
<path d="M43.4574 48.9655C43.6554 48.8057 43.7714 48.5773 43.7836 48.322C43.8057 47.8734 43.4858 47.4805 43.0392 47.4079C42.3483 47.2958 41.7049 47.1404 41.1273 46.9443C39.3294 46.3352 38.3845 45.4345 38.3182 44.2674C38.252 43.0929 38.652 42.225 39.5417 41.6139C39.7575 41.4655 39.9989 41.3353 40.2605 41.2268C40.5177 41.1199 40.6684 40.8568 40.6274 40.5873L40.5552 39.223C37.2215 39.8937 36.4648 42.7343 36.5571 44.3669C36.7441 47.6702 40.5225 48.7808 42.7579 49.1493C43.0084 49.19 43.2585 49.1249 43.4574 48.9655Z" fill="white"/>
<path d="M51.349 40.2574C50.6235 39.7777 49.9189 39.5209 49.5019 39.3978L49.3085 40.336C49.2312 40.7861 49.4734 41.2445 49.9149 41.4643C50.0755 41.5444 50.2302 41.6328 50.3742 41.7278C51.3573 42.3792 51.781 43.2724 51.6702 44.4584C51.5262 45.9931 49.8747 47.0449 47.0183 47.4201C46.578 47.4785 46.2502 47.8592 46.2557 48.3062C46.2588 48.5599 46.3705 48.7997 46.5618 48.9654C46.7552 49.1327 47.0006 49.2065 47.255 49.1718C47.8097 49.0976 48.3479 48.9931 48.854 48.8625C50.8062 48.3575 53.1844 47.2122 53.4262 44.6237C53.5963 42.8077 52.8585 41.2568 51.349 40.2574Z" fill="white"/>
<path d="M50.0527 42.5067L49.7383 45.7907C50.3384 45.4577 50.7972 45.004 50.8552 44.3826C50.9325 43.5573 50.6808 42.9734 50.0527 42.5067Z" fill="white"/>
<path d="M50.9376 56.8406C48.6182 55.2408 48.3026 54.6333 48.3389 51.8392L48.5357 49.7723C48.1546 49.8551 47.7656 49.9289 47.3636 49.9826C47.2886 49.9924 47.2129 49.9976 47.1379 49.998C46.7328 49.998 46.3374 49.8524 46.027 49.5845C45.6585 49.2661 45.4438 48.8041 45.4379 48.3165C45.4277 47.4552 46.0613 46.7214 46.9119 46.6094C47.396 46.5458 48.1562 46.4145 48.881 46.1655L49.2755 42.0451C49.2759 42.0411 49.2782 42.038 49.2786 42.0336C48.6865 41.6115 48.3803 40.9029 48.505 40.1837L48.7038 39.2163C48.3961 39.1552 48.073 39.0995 47.7266 39.0534C47.1754 39.9134 46.2822 40.3502 45.0509 40.3506C45.0284 40.3506 45.0063 40.3506 44.983 40.3502C43.7115 40.3336 42.8052 39.8693 42.2675 38.9713C41.9503 39.0037 41.652 39.0443 41.3672 39.0897L41.4406 40.5044C41.5309 41.0876 41.1995 41.6884 40.629 41.9543L41.0247 46.0184C41.0251 46.0231 41.0232 46.027 41.0232 46.0318C41.1419 46.0783 41.2599 46.1253 41.3897 46.1695C41.9247 46.3506 42.5239 46.4953 43.1702 46.5999C44.0283 46.7392 44.6433 47.497 44.6011 48.3622C44.5771 48.8459 44.3478 49.2977 43.9715 49.6015C43.6669 49.8472 43.2885 49.979 42.9015 49.979C42.8092 49.979 42.7169 49.9715 42.6253 49.9565C42.2446 49.8938 41.8237 49.811 41.3826 49.7013L41.6449 52.3959C42.0229 56.284 44.6169 57.0766 46.9056 57.7753C47.4607 57.9449 47.9854 58.1051 48.4588 58.3032C49.543 58.7557 50.261 59.4698 50.5944 60.4249C50.9763 61.5209 50.7632 62.7088 50.4914 63.5618C51.8494 62.553 52.2415 61.3185 52.3114 60.3835C52.4266 58.8385 51.7034 57.3689 50.9376 56.8406Z" fill="white"/>
<path d="M39.1345 44.2213C39.1645 44.7519 39.514 45.2167 40.1634 45.6139L39.8513 42.4072C39.3136 42.8408 39.0891 43.4077 39.1345 44.2213Z" fill="white"/>
</g>
</g>
<path d="M11.2259 32.0612L10.9729 32.9805L4.84489 31.2937L5.09786 30.3744L11.2259 32.0612ZM2.39368 30.619L2.64664 29.6997L3.73757 29.9999L3.48428 30.9192L2.39368 30.619Z" fill="white"/>
<path d="M10.8424 21.1599L15.1129 23.8493L14.6047 24.6561L9.22656 21.2686L9.55185 20.7524L10.16 20.9552C10.1349 20.709 10.1192 20.5113 10.1131 20.3622C10.107 20.213 10.1385 19.9999 10.2076 19.7232C10.2767 19.4464 10.3927 19.1787 10.5553 18.9206C10.8671 18.4259 11.2779 18.1112 11.788 17.9768C12.2981 17.8425 12.833 17.9514 13.3926 18.3041L17.125 20.655L16.6168 21.4614L13.121 19.2597C12.2535 18.7132 11.5913 18.8019 11.1352 19.5264C10.8099 20.0427 10.7125 20.5872 10.8424 21.1599Z" fill="white"/>
<path d="M18.4086 10.3227L19.1838 9.70457L18.4233 8.75057C18.101 8.34621 17.9942 7.95729 18.1026 7.58346C18.2112 7.20964 18.4095 6.90814 18.6975 6.67832C18.9858 6.4485 19.3002 6.2685 19.6406 6.138L19.9591 6.76189C19.7087 6.89657 19.5307 7.00618 19.4246 7.09039C18.9675 7.45489 18.9158 7.85925 19.2697 8.30314L19.9196 9.11829L20.9334 8.30989L21.4088 8.90646L20.395 9.71454L23.8818 14.0882L23.1361 14.6825L19.6496 10.3089L18.884 10.9193L18.4086 10.3227Z" fill="white"/>
<path d="M33.6452 5.35851C33.3398 4.59994 32.957 4.08019 32.497 3.79958C32.0367 3.51898 31.5199 3.49423 30.9458 3.72501C30.3721 3.95612 30.0419 4.31033 29.9558 4.7883C29.8697 5.26626 29.9847 5.89819 30.301 6.6844C30.8992 8.17037 31.7446 8.69301 32.8374 8.2533C33.4112 8.02219 33.7657 7.67183 33.9007 7.20158C34.0357 6.73165 33.9505 6.11708 33.6452 5.35851ZM34.7335 7.44876C34.5005 8.16362 33.9753 8.68594 33.1579 9.01476C32.3402 9.3439 31.6067 9.33105 30.9564 8.97619C30.3065 8.62133 29.7893 7.96626 29.4049 7.01098C29.0204 6.05569 28.9292 5.22223 29.1313 4.51058C29.3335 3.79894 29.8414 3.27919 30.6549 2.95133C31.4684 2.6238 32.2199 2.64083 32.9094 3.00308C33.5989 3.36501 34.1334 4.01783 34.513 4.96123C34.8929 5.90462 34.9662 6.7339 34.7335 7.44876Z" fill="white"/>
<path d="M46.801 6.83936L46.748 5.73461C46.0614 6.27654 45.4259 6.56164 44.8419 6.58961C43.3183 6.66257 42.5038 5.60282 42.3987 3.41036C42.3393 2.16611 42.5681 1.28121 43.0859 0.756C43.5472 0.292821 44.1229 0.0446786 44.813 0.01125C45.5028 -0.0218571 46.0955 0.263571 46.5911 0.867857L46.8817 0.0266786L47.4403 0L47.7605 6.67896C47.8048 7.60179 47.6091 8.29832 47.1735 8.76857C46.738 9.23914 46.1308 9.49307 45.3517 9.53036C44.9538 9.54932 44.596 9.51557 44.2778 9.42911C43.9596 9.34264 43.6282 9.24396 43.2839 9.13339L43.4292 8.45164C44.1512 8.64611 44.7513 8.73193 45.2299 8.70911C45.7082 8.68629 46.0968 8.51914 46.3957 8.20768C46.6946 7.89654 46.8299 7.44011 46.801 6.83936ZM46.7043 4.82046L46.5905 2.44607C46.5667 1.94657 46.3819 1.54832 46.037 1.25068C45.6918 0.953357 45.3456 0.812893 44.9984 0.829607C44.3382 0.861107 43.886 1.07582 43.6423 1.47375C43.3984 1.87136 43.2968 2.49364 43.337 3.33996C43.4164 4.99918 43.9217 5.80629 44.8532 5.76193C45.4626 5.73268 46.0797 5.41896 46.7043 4.82046Z" fill="white"/>
<path d="M60.8966 6.10969L57.0179 4.92619C56.7804 5.70436 56.7968 6.31186 57.0668 6.74869C57.3368 7.18551 57.7514 7.48926 58.3104 7.65961C58.5942 7.74608 58.797 7.79269 58.9192 7.79911C59.0413 7.80522 59.1573 7.80972 59.2673 7.81229C59.3772 7.81486 59.455 7.81422 59.5006 7.81004C59.7205 7.81519 59.9111 7.81551 60.0715 7.81165L60.0024 8.56122C59.1053 8.59754 58.4296 8.54676 57.9758 8.40822C57.141 8.15365 56.5493 7.69626 56.2015 7.03637C55.8534 6.37647 55.8347 5.53786 56.1449 4.52054C56.4554 3.50322 56.934 2.78322 57.5814 2.36054C58.2287 1.93786 58.915 1.83694 59.6405 2.0584C60.3659 2.27986 60.8596 2.68744 61.1216 3.28079C61.3836 3.87447 61.3919 4.57261 61.1473 5.37522C61.0804 5.59411 60.9969 5.83872 60.8966 6.10969ZM57.2902 4.25183L60.257 5.15697C60.4398 4.55719 60.4755 4.06283 60.3637 3.67422C60.2518 3.28561 59.9346 3.01176 59.4116 2.85233C58.8886 2.6929 58.4524 2.75011 58.1031 3.02461C57.7537 3.29911 57.4827 3.70797 57.2902 4.25183Z" fill="white"/>
<path d="M70.533 9.0858L67.5949 13.1888L66.8196 12.6337L70.5202 7.46613L71.0162 7.8213L70.7777 8.41659C71.0248 8.40598 71.2232 8.40213 71.3723 8.4047C71.5214 8.40727 71.7323 8.4513 72.0045 8.53712C72.2768 8.62262 72.5372 8.75409 72.7853 8.93184C73.2607 9.27223 73.5503 9.70102 73.6541 10.2185C73.7579 10.7357 73.6175 11.2632 73.2324 11.8006L70.6645 15.3871L69.8892 14.832L72.2945 11.4731C72.8914 10.6393 72.8419 9.97327 72.1463 9.47473C71.6503 9.11955 71.1126 8.9897 70.533 9.0858Z" fill="white"/>
<path d="M76.6729 22.2059L76.0989 21.4447L81.1729 17.6168L81.747 18.378L76.6729 22.2059ZM83.2024 16.0859L83.7768 16.847L82.8736 17.5284L82.2992 16.7673L83.2024 16.0859Z" fill="white"/>
<path d="M84.7784 32.5167L83.3911 28.7064C82.6267 28.9848 82.151 29.3631 81.9646 29.8414C81.7778 30.3197 81.7846 30.8337 81.9845 31.383C82.0861 31.6617 82.171 31.8516 82.2394 31.9529C82.3079 32.0541 82.3741 32.1496 82.4384 32.2393C82.5023 32.3286 82.5499 32.3903 82.5801 32.4241C82.7084 32.6028 82.8225 32.7552 82.9225 32.8815L82.2818 33.2768C81.7132 32.5819 81.3478 32.0117 81.1855 31.5655C80.8868 30.7453 80.8965 29.9976 81.2144 29.3229C81.5323 28.6479 82.1909 28.1285 83.1905 27.7647C84.1898 27.4008 85.0532 27.3503 85.78 27.6133C86.507 27.8762 87.0001 28.3641 87.2598 29.0767C87.5192 29.7893 87.4906 30.429 87.1737 30.9953C86.8567 31.5617 86.3042 31.9882 85.5157 32.2753C85.3007 32.3537 85.0548 32.434 84.7784 32.5167ZM84.0937 28.5181L85.1548 31.4328C85.744 31.2184 86.1602 30.9494 86.4035 30.6263C86.6465 30.3033 86.6748 29.8851 86.4877 29.3715C86.3007 28.8578 85.9924 28.5438 85.5633 28.4297C85.1339 28.3156 84.644 28.3448 84.0937 28.5181Z" fill="white"/>
<path d="M5.04994 56.6521L4.79248 55.7177L11.0089 54.0048L11.2664 54.9395L5.04994 56.6521ZM13.4939 53.3205L13.7513 54.2549L12.6453 54.5596L12.3878 53.6252L13.4939 53.3205Z" fill="white"/>
<path d="M14.0098 63.8074L9.67696 66.5344L9.16235 65.7167L14.6196 62.2822L14.9497 62.8065L14.4974 63.2751C14.7334 63.3593 14.9204 63.432 15.0586 63.4927C15.1988 63.5522 15.3801 63.6734 15.6028 63.8563C15.8249 64.042 16.0181 64.2658 16.183 64.5274C16.499 65.0295 16.6073 65.5434 16.5073 66.0693C16.4048 66.5945 16.0702 67.0355 15.5038 67.392L11.7167 69.7754L11.2021 68.958L14.7497 66.725C15.6282 66.1722 15.8362 65.528 15.3736 64.7929C15.0442 64.2693 14.5897 63.9408 14.0098 63.8074Z" fill="white"/>
<path d="M22.3714 71.6455L23.1563 72.2716L23.9274 71.3051C24.255 70.8943 24.6163 70.7015 25.011 70.7265C25.4054 70.7484 25.7483 70.8757 26.0399 71.1081C26.333 71.3421 26.5821 71.6124 26.7869 71.9193L26.2411 72.3745C26.0524 72.1591 25.9042 72.0084 25.7969 71.9222C25.333 71.5523 24.9216 71.5928 24.5623 72.0434L23.9043 72.8682L24.9329 73.6885L24.4491 74.2947L23.4205 73.4744L19.8832 77.9092L19.1256 77.3049L22.6629 72.8698L21.8876 72.2517L22.3714 71.6455Z" fill="white"/>
<path d="M33.6102 81.72C33.921 80.9499 34.0072 80.3003 33.8686 79.7715C33.7295 79.2447 33.3679 78.8635 32.7845 78.6282C32.203 78.3936 31.7125 78.4196 31.3136 78.7063C30.9157 78.9959 30.556 79.5394 30.2339 80.3372C29.6258 81.8441 29.8759 82.8212 30.9841 83.2683C31.5656 83.503 32.0712 83.4956 32.501 83.2462C32.9304 82.9967 33.3004 82.4879 33.6102 81.72ZM32.9359 84.0112C32.2631 84.3702 31.5122 84.3827 30.6833 84.0481C29.854 83.7135 29.3272 83.188 29.1022 82.4712C28.8746 81.7557 28.9562 80.9136 29.3471 79.9451C29.738 78.9763 30.2574 78.3032 30.9057 77.9249C31.556 77.5476 32.2927 77.5251 33.1159 77.8571C33.941 78.1901 34.4787 78.7314 34.7294 79.4813C34.9779 80.2302 34.9088 81.0833 34.5227 82.0402C34.1367 82.9971 33.6076 83.6541 32.9359 84.0112Z" fill="white"/>
<path d="M46.4522 87.4192L46.5065 86.2987C45.7621 86.778 45.0935 87.0033 44.5011 86.9744C42.9541 86.8992 42.2347 85.7507 42.3427 83.5287C42.4041 82.2655 42.722 81.3941 43.2967 80.9151C43.8072 80.4924 44.4127 80.298 45.1134 80.3321C45.8138 80.3661 46.3847 80.712 46.8257 81.3696L47.1995 80.5477L47.7678 80.5754L47.4387 87.3495C47.393 88.2871 47.1275 88.9721 46.6422 89.4044C46.1565 89.8367 45.5181 90.0337 44.7268 89.9952C44.3247 89.9756 43.9675 89.9065 43.6548 89.7872C43.3404 89.668 43.0148 89.5355 42.6783 89.3899L42.8924 88.7162C43.6027 88.984 44.2003 89.1296 44.6847 89.1533C45.1694 89.1768 45.5776 89.046 45.9096 88.7609C46.2417 88.4758 46.4223 88.0287 46.4522 87.4192ZM46.5515 85.3717L46.6688 82.9626C46.6933 82.457 46.5464 82.0372 46.2272 81.7033C45.9083 81.3696 45.5731 81.1941 45.2218 81.1771C44.5509 81.1446 44.0727 81.3163 43.7872 81.693C43.5037 82.0716 43.3411 82.6894 43.2993 83.5467C43.2173 85.2313 43.6484 86.0962 44.5924 86.1419C45.2102 86.1718 45.8633 85.9153 46.5515 85.3717Z" fill="white"/>
<path d="M61.0438 81.2706L57.1098 82.4686C57.3499 83.2571 57.7064 83.7585 58.1795 83.9735C58.6552 84.1899 59.1766 84.2114 59.7439 84.0385C60.0316 83.9507 60.2286 83.8742 60.335 83.8086C60.4421 83.745 60.5417 83.6836 60.6346 83.6245C60.7294 83.5647 60.7944 83.5203 60.83 83.4917C61.0187 83.3699 61.1797 83.2622 61.3128 83.1687L61.6764 83.8385C60.9432 84.3763 60.3456 84.7157 59.8834 84.8565C59.0384 85.114 58.2824 85.0638 57.6154 84.7067C56.9501 84.3467 56.4602 83.6511 56.1459 82.6193C55.8318 81.5879 55.827 80.711 56.132 79.9891C56.4371 79.2672 56.9575 78.7943 57.6932 78.5703C58.429 78.3463 59.075 78.4096 59.6317 78.7606C60.1881 79.1116 60.5906 79.6944 60.8387 80.5092C60.9065 80.7322 60.975 80.9858 61.0438 81.2706ZM56.9559 81.7447L59.9657 80.8284C59.7806 80.2202 59.5315 79.7847 59.2187 79.5208C58.904 79.2578 58.481 79.2074 57.95 79.3691C57.421 79.5301 57.0867 79.8248 56.9465 80.2527C56.8067 80.6805 56.8096 81.1781 56.9559 81.7447Z" fill="white"/>
<path d="M68.3274 74.8588L71.3058 79.0232L70.5202 79.5851L66.7688 74.3407L67.2728 73.98L67.7675 74.4037C67.8379 74.1632 67.8989 73.9723 67.9513 73.8306C68.0024 73.6872 68.1127 73.4988 68.2821 73.2658C68.4544 73.0331 68.6662 72.8271 68.9179 72.6471C69.4003 72.3018 69.9069 72.1636 70.4376 72.2321C70.9679 72.3035 71.4279 72.6114 71.8175 73.1559L74.4207 76.7951L73.6348 77.3573L71.1962 73.9479C70.5922 73.1035 69.9368 72.9341 69.2303 73.4394C68.7273 73.7994 68.4261 74.2725 68.3274 74.8588Z" fill="white"/>
<path d="M81.7849 68.6533L81.2005 69.4266L76.0561 65.5389L76.6404 64.7656L81.7849 68.6533ZM73.9999 63.9852L74.5842 63.2118L75.4993 63.9035L74.915 64.6769L73.9999 63.9852Z" fill="white"/>
<path d="M85.1751 54.6207L83.7631 58.483C84.5371 58.7658 85.1523 58.7832 85.6087 58.535C86.0677 58.2856 86.3991 57.8822 86.6025 57.3249C86.7057 57.0423 86.7633 56.8389 86.7748 56.7148C86.7883 56.591 86.7996 56.4747 86.8079 56.3648C86.8173 56.2532 86.8211 56.1745 86.8198 56.1288C86.8362 55.9048 86.8472 55.7113 86.8526 55.5487L87.6064 55.6618C87.5942 56.5711 87.5054 57.2525 87.3396 57.7061C87.0362 58.536 86.5412 59.1094 85.8543 59.427C85.1661 59.7417 84.3159 59.7137 83.3031 59.3434C82.2903 58.9732 81.5876 58.4489 81.1948 57.7707C80.8021 57.0925 80.7378 56.3921 81.0017 55.6698C81.2659 54.9476 81.7053 54.4699 82.3208 54.2369C82.936 54.0039 83.6438 54.0338 84.4438 54.3263C84.6627 54.4063 84.9067 54.5043 85.1751 54.6207ZM83.0926 58.1702L84.1729 55.2153C83.576 54.9971 83.0781 54.9334 82.6792 55.0244C82.2797 55.1176 81.9846 55.4246 81.7943 55.9459C81.6043 56.4654 81.6381 56.9096 81.8955 57.2792C82.153 57.6485 82.5519 57.9455 83.0926 58.1702Z" fill="white"/>
<path d="M5.29871 43.4915C5.29871 42.9203 5.76188 42.4572 6.33306 42.4572C6.90424 42.4572 7.36742 42.9203 7.3671 43.4915C7.3671 44.0627 6.90392 44.5259 6.33306 44.5259C5.76188 44.5259 5.29871 44.0627 5.29871 43.4915Z" fill="white"/>
<path d="M85.3859 43.4915C85.3859 42.9203 85.849 42.4572 86.4202 42.4572C86.9914 42.4572 87.4546 42.9203 87.4546 43.4915C87.4546 44.0627 86.9914 44.5259 86.4202 44.5259C85.849 44.5259 85.3859 44.0627 85.3859 43.4915Z" fill="white"/>
</g>
</g>
</g>
</g>
<defs>
<clipPath id="clip0_936_38">
<rect width="90" height="90" fill="white"/>
</clipPath>
<clipPath id="clip1_936_38">
<rect width="90" height="90" fill="white"/>
</clipPath>
<clipPath id="clip2_936_38">
<rect width="90" height="90" fill="white"/>
</clipPath>
<clipPath id="clip3_936_38">
<rect width="90" height="90" fill="white"/>
</clipPath>
<clipPath id="clip4_936_38">
<rect width="53.033" height="53.033" fill="white" transform="translate(18.4835 18.4835)"/>
</clipPath>
<clipPath id="clip5_936_38">
<rect width="37.1231" height="37.1231" fill="white" transform="translate(26.4384 26.4385)"/>
</clipPath>
</defs>
</svg>
