<svg xmlns="http://www.w3.org/2000/svg" xmlns:xlink="http://www.w3.org/1999/xlink" version="1.1" x="0px" y="0px" viewBox="0 0 50 62.5" enable-background="new 0 0 50 50" xml:space="preserve"><path d="M24.281,31.099h-0.105v-0.761c0,0,0.217-0.073,0.482-0.19c0.698-0.147,1.488-0.361,1.488-0.361l18.708-11.485l-1.061-0.328  c0,0-9.015,2.849-11.211,3.026c-1.299,0.104-3.702-0.442-5.458-0.911c-0.383-0.191-0.709-0.352-0.861-0.422  c0-0.147,0.052-0.234,0.052-0.234h0.622c0,0-1.784-1.342-4.529-1.714c0-0.341,0-0.488,0-0.488h0.978c0,0,0.035-1.226-1.531-1.43  c-1.567,0.204-1.532,1.43-1.532,1.43H21.3c0,0,0,0.147,0,0.488c-2.743,0.372-4.529,1.714-4.529,1.714h0.623  c0,0,0.052,0.087,0.052,0.234c-0.456,0.205-2.409,1.199-3.064,1.617c-0.749-1.249-1.726-2.531-3.006-3.284  c-1.202-0.706-2.827-1.094-4.141-0.482c-1.155,0.539-1.995,1.597-2.273,2.845c-0.075,0.342-0.117,0.716-0.107,1.071  c0.01,0.372,0.062,0.747,0.174,1.102c0.305,0.98,0.916,1.895,1.854,2.363c0.991,0.495,2.174,0.341,3.235,0.254  c0.414-0.034,0.837-0.097,1.25-0.097c0.372,0,1.817,0.03,1.717,1.399c-0.1,1.359-1.648,1.242-1.648,1.242  c1.985,0.539,1.985-1.58,1.985-1.58s4.377,3.163,4.78,3.531c0.405,0.372,1.331,0.689,1.331,0.689v0.761h-0.105  c-0.887,0-1.722,0.418-2.251,1.131l-0.47,0.636h10.298l-0.472-0.636C26.003,31.517,25.168,31.099,24.281,31.099z M28.986,21.058  c1.165,0.254,2.361,0.454,3.247,0.454c0.138,0,0.268-0.004,0.389-0.014c1.921-0.155,8.676-2.223,10.733-2.864  c-5.957,2.883-14.98,4.804-14.543,3.804C29.013,21.98,29.026,21.476,28.986,21.058z M13.094,25.013  c-0.663-0.609-1.547-0.8-2.419-0.83c-0.947-0.041-1.876,0.181-2.813-0.081c-1.347-0.375-1.93-1.975-1.71-3.237  c0.194-1.125,0.979-2.229,2.196-2.34c2.231-0.201,3.855,2.179,4.588,3.367C13.666,23.081,13.094,25.013,13.094,25.013z"/><text x="0" y="65" fill="#000000" font-size="5px" font-weight="bold" font-family="'Helvetica Neue', Helvetica, Arial-Unicode, Arial, Sans-serif">Created by Kick</text><text x="0" y="70" fill="#000000" font-size="5px" font-weight="bold" font-family="'Helvetica Neue', Helvetica, Arial-Unicode, Arial, Sans-serif">from the Noun Project</text></svg>