<svg class="animated" id="freepik_stories-wishes" xmlns="http://www.w3.org/2000/svg" viewBox="0 0 500 500" version="1.1" xmlns:xlink="http://www.w3.org/1999/xlink" xmlns:svgjs="http://svgjs.com/svgjs"><style>svg#freepik_stories-wishes:not(.animated) .animable {opacity: 0;}svg#freepik_stories-wishes.animated #freepik--Genius--inject-63 {animation: 3s Infinite  linear floating;animation-delay: 0s;}svg#freepik_stories-wishes.animated #freepik--Lamp--inject-63 {animation: 3s Infinite  linear shake;animation-delay: 0s;}            @keyframes floating {                0% {                    opacity: 1;                    transform: translateY(0px);                }                50% {                    transform: translateY(-10px);                }                100% {                    opacity: 1;                    transform: translateY(0px);                }            }                    @keyframes shake {                10%, 90% {                    transform: translate3d(-1px, 0, 0);                  }                  20%, 80% {                    transform: translate3d(2px, 0, 0);                  }                  30%, 50%, 70% {                    transform: translate3d(-4px, 0, 0);                  }                  40%, 60% {                    transform: translate3d(4px, 0, 0);                  }            }        </style><g id="freepik--Floor--inject-63" class="animable" style="transform-origin: 249.53px 352.95px;"><ellipse id="freepik--floor--inject-63" cx="249.53" cy="352.95" rx="228.78" ry="132.09" style="fill: rgb(245, 245, 245); transform-origin: 249.53px 352.95px;" class="animable"></ellipse></g><g id="freepik--Shadows--inject-63" class="animable" style="transform-origin: 243.82px 408.735px;"><ellipse id="freepik--Shadow--inject-63" cx="333.25" cy="420.2" rx="62.03" ry="35.81" style="fill: rgb(230, 230, 230); transform-origin: 333.25px 420.2px;" class="animable"></ellipse><ellipse id="freepik--shadow--inject-63" cx="153.17" cy="396.57" rx="60.81" ry="35.11" style="fill: rgb(230, 230, 230); transform-origin: 153.17px 396.57px;" class="animable"></ellipse></g><g id="freepik--Genius--inject-63" class="animable" style="transform-origin: 165.044px 200.005px;"><g id="freepik--Genie--inject-63" class="animable" style="transform-origin: 165.044px 200.005px;"><path d="M188.65,91.54s10-3.37,16.64-.69c5.44,2.2,9.08,5.44,11.46,10.12,8.57,7.91,25.31,24,30.18,31.58,1.27,2,2.62,3.25,2.5,5.22-.1,1.49-.82,2.48-2.31,4.36l-17.64-2.19c-5.79-4.68-18.37-13.71-26-21.74l-.54,4.48a21.64,21.64,0,0,1-12.58-15.39C187.47,93.45,188.65,91.54,188.65,91.54Z" style="fill: #1993CE; transform-origin: 218.925px 115.972px;" id="elh6etwy71ed" class="animable"></path><g id="elyze4ftwmtfk"><path d="M227.91,138.69c2-2.34,7-4.22,9.67-3.88,0,0-4.76-2.19-11.87,2.18Z" style="opacity: 0.15; transform-origin: 231.645px 136.476px;" class="animable" id="elbmn79rh9ak"></path></g><g id="freepik--Character--inject-63" class="animable" style="transform-origin: 159.816px 189.169px;"><path d="M201.4,247.34c-38.26-.65-53.61,46.84-75,32-19.84-13.72,2.75-37.26,36-53.47,31-15.16,39.82-40.42,42.1-53.57,2.51-14.5,3.1-36.16-1.29-62.27-1.61-9.55-9.92-18-22.07-19.36l-16.33-.37s-4.22.68-11.51,2.17-11.09,4.9-11.77,10.7a24.41,24.41,0,0,0,.59,9.89L144,126.92s5.55,15.53,6,21.48a50.11,50.11,0,0,1-3.7,23.14c-6.24,14.83-30.61,29.39-52.95,56.09-20.86,24.93-15.66,66.69,12.93,78.31,24.39,9.91,49.8,4.26,68.6-15.67,25.77-27.34,49-21.09,46.16-8.74-4.2,18.19-31.19,13.39-50.17,28-19.49,15-14.4,34.32-6.06,41.85,7.85,7.08,19,5.19,19,5.19s-20.3-2.89-18.39-20.47c1.78-16.42,16-20.82,48.18-28.42C250,299.12,248.38,248.14,201.4,247.34Z" style="fill: #1993CE; transform-origin: 159.816px 223.549px;" id="el11e8ke03tlya" class="animable"></path><g id="elfyj9ixl3uco"><path d="M186.15,160.36a2.53,2.53,0,0,1-.34.89,2.18,2.18,0,0,1-.85.68c-1.75.87-3.89.42-5.75,1-1.51.5,1,1.06,1.46,1.12a18.78,18.78,0,0,0,3,0A11.4,11.4,0,0,0,185,164c1-.16,2-.87,2.95-1a6.9,6.9,0,0,1,2.69.62c1.83.53,5.57.9,6.75-1.08a.67.67,0,0,0,.12-.52.57.57,0,0,0-.56-.36,2.14,2.14,0,0,0-.69.15c-1.85.57-5.83.9-5.81-1.94a22.13,22.13,0,0,1,.22-4.15c.07-.37.49-.55.85-.64,1.29-.3,2.65-.16,4-.4a1.88,1.88,0,0,0,.73-.26.76.76,0,0,0,.34-.67.26.26,0,0,0-.07-.15.31.31,0,0,0-.19,0c-1.23.06-2.46,0-3.69,0a4.53,4.53,0,0,1-1.71-.33,3.23,3.23,0,0,1-1.56-2.49c-.21-1.18-.5-3.18.54-4.1a2.57,2.57,0,0,1,1.64-.46,11.52,11.52,0,0,0,3.16-.42,1.42,1.42,0,0,0,.57-.3.56.56,0,0,0,.17-.59,28.22,28.22,0,0,1-4.11-.19,2.76,2.76,0,0,1-1-.28c-.89-.49-1.2-2.34-1.33-3.28a25.34,25.34,0,0,0-.4-4c-.08-.27-.24-.58-.52-.59s-.51.46-.53.83l-.23,3.51a8.67,8.67,0,0,1-.32,2.1c-.75,2.28-3.05,2-5,2.3-.69.1-1.53.83-1,1.32a1,1,0,0,0,.67.2l3.8.22a1.08,1.08,0,0,1,.71.2,1.13,1.13,0,0,1,.28.58,18,18,0,0,1,.5,3.19,2.79,2.79,0,0,1-2.12,2.78,8.27,8.27,0,0,1-2.43.3l-1.94,0c-.29,0-.68.08-.74.37a.47.47,0,0,0,.27.47,1.33,1.33,0,0,0,.56.11c1.45.1,3.32.08,4.53,1S186.41,159,186.15,160.36Z" style="opacity: 0.1; transform-origin: 188.127px 150.34px;" class="animable" id="el7hwkmwl4g33"></path></g><g id="els6uhkur20bs"><path d="M165.87,133.45a.38.38,0,0,0,0,.18.7.7,0,0,0,.27.32c2.27,1.78,5.57,1.84,8.38,1.84a24.62,24.62,0,0,0,9.69-2,18.4,18.4,0,0,1,2.67-1c2.26-.58,3.93.41,6,.94a20.44,20.44,0,0,0,9.71.09c1.74-.41,3.76-1.53,3.64-3.31,0,.54-11.2.62-12,.58a6.25,6.25,0,0,1-3.11-.78,4.63,4.63,0,0,1-1.68-2.6c-.28-1-.36-2.07-.54-3.11-.1-.61-2.17-7.52-3.13-6.32a.75.75,0,0,0-.11.49c.06,2.43,1.38,7,.67,9.78s-4.59,3.69-7,4.08a40.61,40.61,0,0,1-9.79.33,14.7,14.7,0,0,0-2.81-.09C166.38,132.91,165.92,133.13,165.87,133.45Z" style="opacity: 0.1; transform-origin: 186.047px 126.965px;" class="animable" id="el6fm00dk75r3"></path></g><path d="M160.19,91.11c.31,1,.91,5.91,4,9.34,4.36,4.84,7.17,5.8,10.65,7.36,2,.92,5.6,30.34,3.77,48.87,0,0-16.78,3.36-30-.51,0,0-.92-11.26-1.93-17.94-.74-4.85-7.59-27.74-7.39-34.6.17-5.85,2.37-9.14,9.14-10.54S160.19,91.11,160.19,91.11Z" style="fill: rgb(69, 90, 100); transform-origin: 159.2px 124.571px;" id="elsn8a2fulxc" class="animable"></path><path d="M173.23,110.49a.49.49,0,0,0-.33-.41,28,28,0,0,1-9.73-6.5,19.84,19.84,0,0,1-5.63-12.11l-1,.15a21,21,0,0,0,5.87,12.62,29.49,29.49,0,0,0,9.85,6.67c.13,1.09.25,2.18.39,3.3,1.22,10.42,2.6,22.21,1.77,38.62a68.79,68.79,0,0,1-26.16-.72c0,.37.07.72.1,1a66.19,66.19,0,0,0,14.67,1.6,64.74,64.74,0,0,0,12-1,.5.5,0,0,0,.39-.46c.87-16.71-.53-28.65-1.76-39.19C173.51,112.87,173.36,111.67,173.23,110.49Z" style="fill: rgb(250, 250, 250); transform-origin: 161.975px 123.092px;" id="el44eqcvsy9m3" class="animable"></path><g id="el4ex7nq6e5we"><path d="M162.13,272.4A112.73,112.73,0,0,1,182.77,251h0c-25.36,10.76-38.84,40.47-56.39,28.33s-1.9-32,24.94-47.6c-13.45,6.33-39,19.94-45.73,35.78-4.46,10.55,2.69,25.54,19.38,26.68S153.19,284.87,162.13,272.4Z" style="opacity: 0.15; transform-origin: 143.53px 263.003px;" class="animable" id="elvnerpbffhoc"></path></g><g id="el2t9s1rhk1lp"><path d="M212.53,271.24h0c6.26,1,9.68,5.09,8.48,10.28-4.2,18.19-31.19,13.39-50.17,28-10.68,8.24-14,17.75-13.4,25.91,3.25-19.65,23.05-27.69,40-30.91S225,294.77,227,284.83,219.81,272.08,212.53,271.24Z" style="opacity: 0.15; transform-origin: 192.325px 303.335px;" class="animable" id="elg1zo7qjd2tu"></path></g><g id="els2cft6whr"><path d="M205.48,164.81l-.19,0-.21,2.28s-7.17,8.45-28.22,7.68c-24.1-.87-28.48-8.31-28.48-8.31.12-.57.25-1.18.39-1.94l-.17,0a47.31,47.31,0,0,1-2.35,7.08c-.23.56-.5,1.12-.79,1.68h0c-.18.34-.36.68-.55,1l0,.07c-.19.33-.38.66-.58,1a.41.41,0,0,0,0,.09,50.19,50.19,0,0,1-4.94,6.51h0c3.74,2.88,10.08,6.41,16.12,6.6a13.17,13.17,0,0,0,9.31-3.33,77.08,77.08,0,0,0,11.74,1.26,54.13,54.13,0,0,0,17.08-1.85,11.12,11.12,0,0,0,6.54,2.54c.94-2.25,1.7-4.41,2.33-6.46h0c0-.14.08-.28.12-.42.15-.46.28-.92.4-1.38l.19-.64c.17-.64.33-1.26.47-1.86,0-.2.09-.39.13-.58q.15-.63.27-1.23c.06-.26.11-.52.16-.78s.06-.27.08-.4h0c.06-.34.13-.7.19-1C204.84,170,205.19,167.48,205.48,164.81Z" style="opacity: 0.15; transform-origin: 172.435px 176.541px;" class="animable" id="elbgty0036sjk"></path></g><path d="M149.25,161.49c-1.61-.53-1.8,1.36-3.12,5.47-1.25,3.85-2.11,5.63-.94,6.76,1.7,1.64,11.23,9,31.75,9.69,17,.59,24.75-5,26.42-6.06,1.92-1.15,2.87-2.48,3.47-9.63.3-3.47.82-5.9-1.07-5.94l-.09,1.41s-7.28,9.32-28.33,8.56c-24.1-.88-28.49-8.32-28.49-8.32C149,162.86,149.11,162.25,149.25,161.49Z" style="fill: #1993CE; transform-origin: 175.883px 172.428px;" id="el02ax4rlloi3g" class="animable"></path><g id="el6slr4zjk3ji"><path d="M149.25,161.49c-1.61-.53-1.8,1.36-3.12,5.47-1.25,3.85-2.11,5.63-.94,6.76,1.7,1.64,11.23,9,31.75,9.69,17,.59,24.75-5,26.42-6.06,1.92-1.15,2.87-2.48,3.47-9.63.3-3.47.82-5.9-1.07-5.94l-.09,1.41s-7.28,9.32-28.33,8.56c-24.1-.88-28.49-8.32-28.49-8.32C149,162.86,149.11,162.25,149.25,161.49Z" style="fill: rgb(255, 255, 255); opacity: 0.7; transform-origin: 175.883px 172.428px;" class="animable" id="elncln19a718h"></path></g><circle cx="170.83" cy="49.85" r="28.31" style="fill: rgb(38, 50, 56); transform-origin: 170.83px 49.85px;" id="elr33sbrswaz" class="animable"></circle><path d="M198.18,38.7s-2.48-13.14-20.33-12.64c-17.29.48-25.49,12.64-27.39,20-1.53,5.89-2.9,20.83,8.06,23.21Z" style="fill: rgb(55, 71, 79); transform-origin: 173.807px 47.658px;" id="elabgcicxsjt" class="animable"></path><path d="M163.23,63.94c-.87,1.27-2.28-1.54-3.42-2.78s-5-2.3-6.88,1.77,1.3,8.09,4,9.42c4.75,2.36,6.26-1.08,6.26-1.08L163.54,91c6.7,10.36,23.11,12.61,17.54.38v-7.3a22.38,22.38,0,0,0,5.66.2,11.54,11.54,0,0,0,8.65-7.85c2-6.26,2.76-13,1.38-25.46-1.6-14.49-19.84-14.64-28.49-8.79C160.62,47.41,163.23,63.94,163.23,63.94Z" style="fill: #1993CE; transform-origin: 174.917px 69.1285px;" id="elohbnvy36tsp" class="animable"></path><g id="el280z5qtw6jj"><path d="M180.43,84A54.06,54.06,0,0,1,170.31,81a11,11,0,0,0,5,3.29,40,40,0,0,0,5.15,1.38Z" style="opacity: 0.3; transform-origin: 175.385px 83.335px;" class="animable" id="elfciqcsp951"></path></g><g id="elafx09t2qln"><path d="M182,74.23l4.07.08a2.1,2.1,0,0,1-2.15,2.1A2.07,2.07,0,0,1,182,74.23Z" style="opacity: 0.3; transform-origin: 184.033px 75.3203px;" class="animable" id="elpi9d58oowl"></path></g><path d="M191.86,77.36a12.51,12.51,0,0,0-.14-1.49,5.36,5.36,0,0,0-2.63-4,11,11,0,0,0-4.81-.49c-3,.15-5.17.84-6.32,2.63a9.51,9.51,0,0,0-.35,9.59c2.23,4,6.44,4.81,10.51,4.9a14.38,14.38,0,0,0,5.09-1,3.34,3.34,0,0,0,2.13-3.59c0-.18-.18-.41-.36-.35a1,1,0,0,1-.25,1c-.77.81-2.09.13-2.56-.68a4.67,4.67,0,0,1-.46-2.51C191.75,80,191.9,78.68,191.86,77.36ZM190,79.59c-.42,1.52-2.53,1.75-3.41,1.27-.41-.22-.66-2.23,0-2.55s.32-.84-1.52-.7-1.84.66-1.12.82,1,2,.1,2.4a4.3,4.3,0,0,1-3.62-.12c-1.33-1-1.59-4.71-.44-6.2,1.32-1.7,3.71-1.74,5.26-1.66,1.71.08,3.41.13,4.58,1.51S190.37,78.11,190,79.59Z" style="fill: #1993CE; transform-origin: 185.926px 79.9004px;" id="elm4hqfb66h8" class="animable"></path><g id="elxcxvp0yrdpk"><path d="M191.86,77.36a12.51,12.51,0,0,0-.14-1.49,5.36,5.36,0,0,0-2.63-4,11,11,0,0,0-4.81-.49c-3,.15-5.17.84-6.32,2.63a9.51,9.51,0,0,0-.35,9.59c2.23,4,6.44,4.81,10.51,4.9a14.38,14.38,0,0,0,5.09-1,3.34,3.34,0,0,0,2.13-3.59c0-.18-.18-.41-.36-.35a1,1,0,0,1-.25,1c-.77.81-2.09.13-2.56-.68a4.67,4.67,0,0,1-.46-2.51C191.75,80,191.9,78.68,191.86,77.36ZM190,79.59c-.42,1.52-2.53,1.75-3.41,1.27-.41-.22-.66-2.23,0-2.55s.32-.84-1.52-.7-1.84.66-1.12.82,1,2,.1,2.4a4.3,4.3,0,0,1-3.62-.12c-1.33-1-1.59-4.71-.44-6.2,1.32-1.7,3.71-1.74,5.26-1.66,1.71.08,3.41.13,4.58,1.51S190.37,78.11,190,79.59Z" style="opacity: 0.5; transform-origin: 185.926px 79.9004px;" class="animable" id="elypycj2pbyu"></path></g><path d="M176.36,55.15l-3.55,2a2.27,2.27,0,0,1,.83-2.94A1.94,1.94,0,0,1,176.36,55.15Z" style="fill: rgb(38, 50, 56); transform-origin: 174.466px 55.5599px;" id="elttgwg68sabq" class="animable"></path><path d="M194.23,57.33,191,54.74a1.9,1.9,0,0,1,2.81-.45A2.27,2.27,0,0,1,194.23,57.33Z" style="fill: rgb(38, 50, 56); transform-origin: 192.816px 55.5941px;" id="elwur2mi7xapr" class="animable"></path><path d="M192.66,61.63a1.67,1.67,0,1,1-1.66-1.8A1.73,1.73,0,0,1,192.66,61.63Z" style="fill: rgb(38, 50, 56); transform-origin: 190.993px 61.5px;" id="el5rgbuv9msqc" class="animable"></path><path d="M178.6,62.15a1.67,1.67,0,1,1-1.66-1.8A1.73,1.73,0,0,1,178.6,62.15Z" style="fill: rgb(38, 50, 56); transform-origin: 176.933px 62.02px;" id="el82f5wsas93r" class="animable"></path><g id="eltn6e9ygpg4l"><polygon points="183.54 59.03 183.73 69.52 189.68 68.15 183.54 59.03" style="opacity: 0.3; transform-origin: 186.61px 64.275px;" class="animable" id="elp32cmi87xf"></polygon></g></g><path d="M159.81,61.16s6.64-13.78,19.55-15.58S196.9,49.37,197,53.72a9.64,9.64,0,0,0,4.15-6.2c1.16-6.26-3-17.19-21.82-15.74-13.71,1.06-21.59,9.39-24.28,17.39-1.22,3.64-1,9.6-.09,11.36A4.32,4.32,0,0,1,159.81,61.16Z" style="fill: rgb(69, 90, 100); transform-origin: 177.767px 46.4045px;" id="elmxb316djst" class="animable"></path><path d="M189.68,39.41a1.76,1.76,0,0,1-.2.8L188.08,43a1.68,1.68,0,0,1-.58.66,1.72,1.72,0,0,1-.81.29h0l-1.83.11-.63,0a1.73,1.73,0,0,1-1-.22,1.79,1.79,0,0,1-.66-.65l0,0-1.32-2.47a1.72,1.72,0,0,1-.2-.8,1.68,1.68,0,0,1,.1-.62l1.5-3a1.67,1.67,0,0,1,.57-.66,1.82,1.82,0,0,1,.85-.31h0l.72,0,1.7-.1a1.75,1.75,0,0,1,1.64.92l1.32,2.46A1.69,1.69,0,0,1,189.68,39.41Z" style="fill: rgb(55, 71, 79); transform-origin: 185.365px 39.6467px;" id="elgacp38nv3v5" class="animable"></path><path d="M189.68,39.21a1.65,1.65,0,0,1-.17.71l-1.25,2.47a1.48,1.48,0,0,1-.5.58,1.53,1.53,0,0,1-.72.26h0l-1.61.1-.56,0a1.62,1.62,0,0,1-.85-.2,1.67,1.67,0,0,1-.58-.57.08.08,0,0,0,0,0l-1.15-2.18a1.34,1.34,0,0,1-.18-.71,1.68,1.68,0,0,1,.08-.54l1.33-2.64a1.42,1.42,0,0,1,.5-.58,1.55,1.55,0,0,1,.75-.27h0l.64,0,1.49-.09a1.68,1.68,0,0,1,.86.2,1.65,1.65,0,0,1,.59.61l1.17,2.18A1.47,1.47,0,0,1,189.68,39.21Z" style="fill: #1993CE; transform-origin: 185.895px 39.4401px;" id="elp6wh4exhqyc" class="animable"></path><g id="elu6c0jixen0m"><path d="M189.68,39.21a1.65,1.65,0,0,1-.17.71l-1.25,2.47a1.48,1.48,0,0,1-.5.58,1.53,1.53,0,0,1-.72.26h0l-1.61.1-.56,0a1.62,1.62,0,0,1-.85-.2,1.67,1.67,0,0,1-.58-.57.08.08,0,0,0,0,0l-1.15-2.18a1.34,1.34,0,0,1-.18-.71,1.68,1.68,0,0,1,.08-.54l1.33-2.64a1.42,1.42,0,0,1,.5-.58,1.55,1.55,0,0,1,.75-.27h0l.64,0,1.49-.09a1.68,1.68,0,0,1,.86.2,1.65,1.65,0,0,1,.59.61l1.17,2.18A1.47,1.47,0,0,1,189.68,39.21Z" style="fill: rgb(255, 255, 255); opacity: 0.7; transform-origin: 185.895px 39.4401px;" class="animable" id="elyy2t45du6ff"></path></g><g id="el0d3gf8pu5t69"><polygon points="186.61 37.95 185.12 38.04 184.37 39.53 185.12 40.93 186.61 40.84 187.36 39.35 186.61 37.95" style="fill: #1993CE; opacity: 0.5; transform-origin: 185.865px 39.44px;" class="animable" id="elrzo9uumw59"></polygon></g><g id="el5ocq3ty84u4"><path d="M189.68,39.21l-2.32.14-.75-1.4,1.13-2.24a1.65,1.65,0,0,1,.59.61l1.17,2.18A1.47,1.47,0,0,1,189.68,39.21Z" style="fill: rgb(255, 255, 255); opacity: 0.5; transform-origin: 188.145px 37.53px;" class="animable" id="elk2utk2xw3ja"></path></g><g id="elc33hw5n1mio"><path d="M187.76,43a1.53,1.53,0,0,1-.72.26h0l-1.61.1-.56,0a1.62,1.62,0,0,1-.85-.2l1.12-2.24,1.5-.09Z" style="fill: rgb(255, 255, 255); opacity: 0.5; transform-origin: 185.89px 42.0957px;" class="animable" id="elf33ah8xlc9m"></path></g><g id="elvegok2ro1la"><path d="M185.11,38l-.74,1.49-2.31.14a1.68,1.68,0,0,1,.08-.54l1.33-2.64a1.42,1.42,0,0,1,.5-.58Z" style="fill: rgb(255, 255, 255); opacity: 0.5; transform-origin: 183.585px 37.75px;" class="animable" id="elon4keac94ua"></path></g><path d="M248.71,139.94c-1.59,2.19-3.8,8.51-9,14.45-3.91,4.52-11.83,12.65-15.23,15.75-4.4,4-6.37,5.42-9.95,8.34-2.7,2.21-5.29,5.23-11.53,6.2-3.55.55-9.58-.43-11.37-5.81-1-3.09,1-3.47,6.77-5.82,5.88-2.41,7-3.26,8.38-5.33a27,27,0,0,0,.23-4.71c-.19-.86-.61-1.27-1.3-1.23l.12-1.22a12.27,12.27,0,0,1,2.82,1.26c2.25,1.31,4.11,2.53,8.55-3.79,3.91-5.59,5.37-13.31,11-19.78S248.71,139.94,248.71,139.94Z" style="fill: #1993CE; transform-origin: 220.047px 160.285px;" id="el4o3l1spqp3x" class="animable"></path><path d="M152.36,92.33s-8.62-1.75-14.79,1.84c-5.07,3-7.92,6-10.34,13.21-7.36,9.06-21.64,27.32-25.38,35.56-1,2.14-2.14,3.59-1.73,5.52.3,1.46,1.15,2.33,2.89,4l17.16-4.66c5.07-5.46,16.23-16.19,22.63-25.22l1.17,4.36a21.68,21.68,0,0,0,10.27-17C155.14,95.78,152.36,92.33,152.36,92.33Z" style="fill: #1993CE; transform-origin: 127.227px 122.182px;" id="el8auhzk2is5t" class="animable"></path><path d="M101.13,150.5c1.88,1.94,4.94,6.4,10.87,11.54,4.52,3.92,14.43,9.79,18.17,12,5.13,3,7.08,4.46,11,6.85,3,1.8,9.58,5.26,15.89,5.33,3.59,0,8.23-2.26,11.09-7.74,1.46-2.8-3.07-4.62-9.18-5.64-7.62-1.27-9.09-2.92-11-3.93a3,3,0,0,1-1.41-3.54l.76-2.38c-.29-.21-1,0-2.75,1.38-2,1.62-3.24,2.45-9.06-2.62-5.41-4.72-7.46-9.83-14-15.42S101.13,150.5,101.13,150.5Z" style="fill: #1993CE; transform-origin: 134.778px 165.411px;" id="elxrzfmdlae9r" class="animable"></path><g id="elyleiae8c82"><path d="M142.8,122.56l1.17,4.36a17.94,17.94,0,0,0,2.77-2,10.52,10.52,0,0,1,.24-4.28c.85-2.88.34-4.06.34-4.06A37,37,0,0,1,142.8,122.56Z" style="opacity: 0.15; transform-origin: 145.136px 121.75px;" class="animable" id="elz2gyu5y1a7d"></path></g><g id="ell7kdvjwwwli"><path d="M121.6,146.31a12.76,12.76,0,0,0-10-1s4-4.35,12.07-1.26Z" style="opacity: 0.15; transform-origin: 117.635px 144.626px;" class="animable" id="elt0434nr1y7f"></path></g><path d="M182.49,90.9c2.22,1.58,7.52,5.29,8.93,8.83,1,2.36.72,5.32-1,6.76-.86.71,2.57,5.8,4.23,22.7,1.12,11.38,1.05,25.49,1.05,25.49s7.7-.68,11.85-3.63c.08-1,5.33-28,.9-41.48A29.82,29.82,0,0,0,190.67,91S185.63,90.71,182.49,90.9Z" style="fill: rgb(69, 90, 100); transform-origin: 196.357px 122.758px;" id="el7vcon9588hm" class="animable"></path><path d="M208.15,147.2c-2.92,1.09-6.61,2.08-8.08,2.46.6-25.6-4.64-40.4-5.41-42.44a10.3,10.3,0,0,0,1.24-5.82c-.49-3.84-3.36-7.52-8.18-10.54-.63,0-1.32,0-2,0,5.45,3,8.7,6.78,9.19,10.69a9,9,0,0,1-1.22,5.37.52.52,0,0,0,0,.47c.06.15,6.17,15.22,5.42,42.94a.49.49,0,0,0,.18.4.52.52,0,0,0,.32.11h.12c.25-.07,4.66-1.17,8.29-2.47C208,148,208.08,147.61,208.15,147.2Z" style="fill: rgb(250, 250, 250); transform-origin: 196.935px 120.85px;" id="el3i0mcj764nv" class="animable"></path><path d="M182.6,378.47c1-4.72,3.76-8.15,13-6.58,13,2.19,21.26.06,24.36-6.58,3.61-7.74-.7-17.08-18.43-15.34-16.15,1.58-26.67.65-30.56-5.87,0,0,.57,6.52,12.1,9.78,14.58,4.11,23.3-.48,28,5.49,1.15,1.45,1.08,5.94-3,7.58-2.45,1-6.87,1.07-11.7.56C183.63,366.15,181.43,375,182.6,378.47Z" style="fill: #1993CE; transform-origin: 196.053px 361.285px;" id="elzf58a62jsq" class="animable"></path></g></g><g id="freepik--Lamp--inject-63" class="animable animator-active" style="transform-origin: 134.324px 366.743px;"><g id="freepik--lamp--inject-63" class="animable" style="transform-origin: 134.324px 366.743px;"><path d="M101.09,371.84a5.17,5.17,0,0,1-2-.38c-2.17-1-3.36-3.09-3.36-6.08a3.76,3.76,0,0,1,1.4-3.05A2.83,2.83,0,0,1,100,362a4.35,4.35,0,0,1,2.42,4.11,2.12,2.12,0,0,1-1.52,2.18,1.53,1.53,0,0,1-1.72-.92c-.19-.43-.3-.76.43-1.13s.78-.06,1,.24a.83.83,0,0,0,.07-.37,3,3,0,0,0-1.42-2.73.52.52,0,0,0-.56,0,2.35,2.35,0,0,0-.62,1.72c0,2.29,1,4.15,2.49,4.83a1.5,1.5,0,0,0,1.47-.08,3.17,3.17,0,0,0,1.07-2.74c0-3.53-2.15-6.33-4.23-9l-.28-.37c-1.14-1.49-2.1-2.67-3.13-3.92s-2.12-2.59-3.4-4.27c-4.23-5.52-4.4-9.33-3.26-10.92,1.73-2.4,4.51-3.76,8.66-1.52,3.92,2.12,8.19,4.7,9.87,6.78,2,2.45.45,4.12-.53,6.34-.41.94.07,1.43.84,2.22a3.47,3.47,0,0,1,.83,1.41c.45.14-.27.8-.4,1.25a.85.85,0,0,1-1,.59,3.69,3.69,0,0,1-2.23-1.89,4.38,4.38,0,0,1,.19-3.72c.9-2.06,1.08-2.87-.28-4.56s-5.13-3.84-8.75-5.75c-1.74-.91-4.8-1.57-5.77-.22-.69,1,.65,3.58,4.29,8.32,1.26,1.66,2.27,2.91,3.3,4.17s2.06,2.66,3.21,4.16l.28.37c2.15,2.8,4.25,6.37,4.25,10.48A5.39,5.39,0,0,1,103,371.3,3.85,3.85,0,0,1,101.09,371.84Z" style="fill: #1993CE; transform-origin: 98.4171px 353.906px;" id="elsvjsz52uwkn" class="animable"></path><path d="M101.09,371.84a5.17,5.17,0,0,1-2-.38c-2.17-1-3.36-3.09-3.36-6.08a3.76,3.76,0,0,1,1.4-3.05A2.83,2.83,0,0,1,100,362a4.35,4.35,0,0,1,2.42,4.11,2.12,2.12,0,0,1-1.52,2.18,1.53,1.53,0,0,1-1.72-.92c-.19-.43-.3-.76.43-1.13s.78-.06,1,.24a.83.83,0,0,0,.07-.37,3,3,0,0,0-1.42-2.73.52.52,0,0,0-.56,0,2.35,2.35,0,0,0-.62,1.72c0,2.29,1,4.15,2.49,4.83a1.5,1.5,0,0,0,1.47-.08,3.17,3.17,0,0,0,1.07-2.74c0-3.53-2.15-6.33-4.23-9l-.28-.37c-1.14-1.49-2.1-2.67-3.13-3.92s-2.12-2.59-3.4-4.27c-4.23-5.52-4.4-9.33-3.26-10.92,1.73-2.4,4.51-3.76,8.66-1.52,3.92,2.12,8.19,4.7,9.87,6.78,2,2.45.45,4.12-.53,6.34-.41.94.07,1.43.84,2.22a3.47,3.47,0,0,1,.83,1.41c.45.14-.27.8-.4,1.25a.85.85,0,0,1-1,.59,3.69,3.69,0,0,1-2.23-1.89,4.38,4.38,0,0,1,.19-3.72c.9-2.06,1.08-2.87-.28-4.56s-5.13-3.84-8.75-5.75c-1.74-.91-4.8-1.57-5.77-.22-.69,1,.65,3.58,4.29,8.32,1.26,1.66,2.27,2.91,3.3,4.17s2.06,2.66,3.21,4.16l.28.37c2.15,2.8,4.25,6.37,4.25,10.48A5.39,5.39,0,0,1,103,371.3,3.85,3.85,0,0,1,101.09,371.84Z" style="fill: rgb(69, 90, 100); transform-origin: 98.4171px 353.906px;" id="elau0jzrb52rw" class="animable"></path><path d="M108.48,353.84a3.47,3.47,0,0,0-.83-1.41c-.77-.79-1.25-1.28-.84-2.22.64-1.45,1.51-2.67,1.49-4l-1.8,1a5.37,5.37,0,0,1-.69,2.6,5.19,5.19,0,0,0-.48,2.42h0a3.34,3.34,0,0,0,.29,1.3,3.77,3.77,0,0,0,2.24,1.89h0a1,1,0,0,0,.19-.34C108.21,354.64,108.93,354,108.48,353.84Z" style="fill: rgb(38, 50, 56); transform-origin: 106.975px 350.815px;" id="elibm7s6do38a" class="animable"></path><path d="M103.55,370.86a5.15,5.15,0,0,0,2-3.82c0-4.11-2.1-7.68-4.25-10.48l-.28-.37c-1.15-1.5-2.17-2.9-3.21-4.16s-2-2.51-3.3-4.17c-3.63-4.73-5-7.34-4.29-8.32a4.05,4.05,0,0,0-.68,4,21.5,21.5,0,0,0,3.22,5.55c1.28,1.68,2.36,3,3.4,4.27s2,2.44,3.13,3.92l.28.37c2.08,2.7,4.18,5.5,4.23,9,0,1.29,0,3-.86,4a2.72,2.72,0,0,1-2.52,1.12,4.37,4.37,0,0,0,1.79-.14A3.53,3.53,0,0,0,103.55,370.86Z" style="fill: rgb(38, 50, 56); transform-origin: 97.4178px 355.673px;" id="el5j4julomrt5" class="animable"></path><path d="M103.1,367.38v0a3,3,0,0,1-1,2.46,1.5,1.5,0,0,1-1.47.08c-1.54-.68-2.49-2.54-2.49-4.83a2.35,2.35,0,0,1,.62-1.72.52.52,0,0,1,.56,0c-.83-.71-2.17-.09-2.57,1a5.09,5.09,0,0,0,.06,3.25c.33,1.14,2,3.75,4.06,3.38S103.1,368.57,103.1,367.38Z" style="fill: rgb(38, 50, 56); transform-origin: 99.8103px 367.051px;" id="el7v792tleklh" class="animable"></path><path d="M100.61,366.5c-.21-.31-.46-.37-.67-.26a1.12,1.12,0,0,0-.47.34C99.24,367,100.21,367.66,100.61,366.5Z" style="fill: rgb(38, 50, 56); transform-origin: 100.023px 366.67px;" id="el0kb33mot38cb" class="animable"></path><g id="el9aj1voakni"><path d="M90.9,339l.07,0Z" style="opacity: 0.1; transform-origin: 90.935px 339px;" class="animable" id="elqanw2q72f7k"></path></g><g id="elr98tmbcanx"><path d="M90.42,339.34a.26.26,0,0,0-.13.08l-.09.11A1.3,1.3,0,0,1,90.42,339.34Z" style="opacity: 0.1; transform-origin: 90.31px 339.435px;" class="animable" id="eltxz6u2r8pnk"></path></g><path d="M137.35,392.52a5.73,5.73,0,0,0,.38-.62.89.89,0,0,0,.08-.17,4.16,4.16,0,0,0,.23-.54,1.77,1.77,0,0,0,.06-.17,4.39,4.39,0,0,0,.18-.69v0a4.14,4.14,0,0,0,.06-.7c0-.07,0-.14,0-.21a3.89,3.89,0,0,0,0-.49,2.34,2.34,0,0,0,0-.26,3.9,3.9,0,0,0-.12-.46,2.17,2.17,0,0,0-.07-.24,4.06,4.06,0,0,0-.27-.65l-.12-.21-.28-.46-.2-.27-.14-.2a3.23,3.23,0,0,1-.23-.27l-.13-.14a16.25,16.25,0,0,0-24.5,0l-.1.12-.25.28c-.06.07-.1.15-.15.22a2.35,2.35,0,0,0-.19.25c-.11.16-.2.32-.3.49l-.09.17a5.65,5.65,0,0,0-.29.67l-.06.21a4.05,4.05,0,0,0-.12.5,1.57,1.57,0,0,0,0,.23,4.38,4.38,0,0,0,0,.52c0,.06,0,.12,0,.18a5,5,0,0,0,.24,1.42.88.88,0,0,0,0,.15,5.72,5.72,0,0,0,.24.57l.08.15a4.86,4.86,0,0,0,.39.65l0,0a7.15,7.15,0,0,0,.56.7l0,0c.19.2.39.4.6.59l.16.13c.2.17.41.34.63.5l.16.12c.29.2.58.39.9.57,5.42,3.14,14.23,3.14,19.65,0a9.7,9.7,0,0,0,.89-.57l.18-.13c.22-.16.42-.32.61-.48l.17-.15a7.73,7.73,0,0,0,.58-.56l.07-.07a8.61,8.61,0,0,0,.55-.68Z" style="fill: rgb(55, 71, 79); transform-origin: 124.535px 388.856px;" id="el2zlee3babgt" class="animable"></path><g id="elzs04y14xkv"><g style="opacity: 0.3; transform-origin: 124.44px 389.38px;" class="animable" id="eliyzappbnmj"><path d="M126.48,384.8c-.56.14.56,2.24,1.77,5.95.63,2,1,4.78,4.17,3.21,3-1.44.48-4.84-1.8-7C128.59,385,127.1,384.65,126.48,384.8Z" style="fill: #1993CE; transform-origin: 130.063px 389.595px;" id="el6m32ywu0e6" class="animable"></path><path d="M127,383.52a11.9,11.9,0,0,1,5.12,3.17c1.6,1.49,2.84,3.38,3.44,3.62s1-2.36,0-3.67a10.45,10.45,0,0,0-4.88-3.46C128.63,382.56,126.52,383.26,127,383.52Z" style="fill: #1993CE; transform-origin: 131.55px 386.628px;" id="el25c88188yf1" class="animable"></path><path d="M124.44,395.83c-3.06,0-3.58-.55-2.4-5.5.62-2.61,1.89-5.23,2.4-5.23s1.79,2.62,2.41,5.23C128,395.28,127.51,395.83,124.44,395.83Z" style="fill: #1993CE; transform-origin: 124.438px 390.465px;" id="elfte4k5eiro" class="animable"></path><path d="M122.4,384.8c.57.14-.55,2.24-1.76,5.95-.64,2-1,4.78-4.17,3.21-3-1.44-.48-4.84,1.8-7C120.3,385,121.79,384.65,122.4,384.8Z" style="fill: #1993CE; transform-origin: 118.825px 389.595px;" id="elaevxfa0e5sg" class="animable"></path><path d="M121.87,383.52a12,12,0,0,0-5.11,3.17c-1.6,1.49-2.84,3.38-3.44,3.62s-1-2.36,0-3.67a10.45,10.45,0,0,1,4.88-3.46C120.25,382.56,122.37,383.26,121.87,383.52Z" style="fill: #1993CE; transform-origin: 117.327px 386.628px;" id="el9i1k9po745" class="animable"></path></g></g><g id="eljjq9rhwlh9r"><path d="M122.71,386.93c4.8.89,9.48.48,14.84,0l-.16-.26-.2-.27-.14-.2a3.23,3.23,0,0,1-.23-.27l-.13-.14a16.22,16.22,0,0,0-22.57-1.85A28,28,0,0,0,122.71,386.93Z" style="opacity: 0.3; transform-origin: 125.835px 383.837px;" class="animable" id="el06wfyattaimi"></path></g><path d="M115,347.76c-9.25,3.08-12.15,11.3-10.71,18.34s6.85,14.78,19,17,23.75-3.93,47.48,1.19c3.91.84,7.94,2,9.06,1.14s.7-2.77-1.29-4.26a16.51,16.51,0,0,0-4.75-2.14c-4.16-1.26-18.4-2.89-24.27-9.79-4-4.66-4.22-13.18-10.84-17.72C130.77,346.14,122.59,345.22,115,347.76Z" style="fill: rgb(69, 90, 100); transform-origin: 142.19px 366.07px;" id="elqdtzhk09d9c" class="animable"></path><g id="elephlmyjnsd4"><path d="M140.14,361.86c-5.78,6.4-14.16,8-22.42,7.84-.73,0-1.7.18-1.73.9a1.35,1.35,0,0,0,.53.93c4,3.8,9.92,4.84,15.44,4.76s10.23-.9,16.51-.75c1.51,0,3.2.3,4.7.46s3.7.63,4.5.14-2-1.23-2.8-1.46a17.81,17.81,0,0,1-7.67-4.75,12.83,12.83,0,0,1-2.63-3.49c-.67-1.45-1.09-3-1.86-4.41-.3-.56-.79-1.15-1.42-1.07a1.76,1.76,0,0,0-1,.72Z" style="fill: rgb(255, 255, 255); opacity: 0.05; transform-origin: 136.901px 368.655px;" class="animable" id="el1xaq7anxeho"></path></g><g id="elcl2rs7njeav"><path d="M171.87,382c-2.15-1.54-12.43-4.42-20.31-4.58-9.41-.2-22.82,3-32.5-.23C103.73,372,104,360.89,104.57,358a16.73,16.73,0,0,0-.32,8.1c1.43,6.92,6.85,14.78,19,17s23.75-3.93,47.48,1.19a55.69,55.69,0,0,0,7.51,1.44A7.62,7.62,0,0,1,171.87,382Z" style="opacity: 0.1; transform-origin: 141.069px 371.865px;" class="animable" id="elcmi0f7nhvo"></path></g><path d="M124.44,364.84c8.92,0,16.14-4.2,16.14-9.38a6.11,6.11,0,0,0-1-3.19c-.3-.24-.6-.48-.92-.7-7.39-5.07-15-6.2-22.21-4.26-4.88,1.61-8.17,4.65-8.17,8.15C108.31,360.64,115.53,364.84,124.44,364.84Z" style="fill: rgb(55, 71, 79); transform-origin: 124.43px 355.628px;" id="elr64rr2xlf9" class="animable"></path><path d="M138.27,350.8l-.34-.38a17.79,17.79,0,0,0-27,0l-.33.38c-2.62,3.26-1.6,7.26,3,9.94,6,3.43,15.6,3.43,21.54,0C139.87,358.06,140.89,354.06,138.27,350.8Z" style="fill: rgb(69, 90, 100); transform-origin: 124.432px 353.764px;" id="eldg2wcm2lkc" class="animable"></path><path d="M126.11,343.36a.82.82,0,0,0-.49-.68,2.56,2.56,0,0,0-2.35,0,.81.81,0,0,0-.49.68h0v4.26h0a.78.78,0,0,0,.47.81,2.63,2.63,0,0,0,2.35,0,.78.78,0,0,0,.47-.81h0Z" style="fill: rgb(55, 71, 79); transform-origin: 124.442px 345.551px;" id="elmnwtovm3ypc" class="animable"></path><g id="elv0257b8j3y9"><path d="M126.11,343.56a.63.63,0,0,0-.07-.26,2.22,2.22,0,0,0-1.13-.65,3.41,3.41,0,0,0-.46,0h0a3.41,3.41,0,0,0-.46,0,2.22,2.22,0,0,0-1.13.65.59.59,0,0,0-.07.26v2.63a2.35,2.35,0,0,0,3.33,0Z" style="opacity: 0.1; transform-origin: 124.455px 344.762px;" class="animable" id="eljorklbo8dsj"></path></g><circle cx="124.44" cy="343.23" r="2.85" style="fill: rgb(69, 90, 100); transform-origin: 124.44px 343.23px;" id="el2hw2hb49is9" class="animable"></circle><g id="elkyov7zxfhqg"><path d="M123,342.57a2.11,2.11,0,0,0,4.22,0h0a2.84,2.84,0,0,0-2.1-2.09h0A2.11,2.11,0,0,0,123,342.57Z" style="fill: #1993CE; opacity: 0.5; transform-origin: 125.11px 342.58px;" class="animable" id="el1nxf67k2etc"></path></g><g id="elb93fpepys6e"><path d="M127.21,342.56h0a2.11,2.11,0,1,1-2.11-2.1h0a2.84,2.84,0,1,0,2.18,2.76A3,3,0,0,0,127.21,342.56Z" style="fill: #1993CE; opacity: 0.3; transform-origin: 124.44px 343.222px;" class="animable" id="elroj3wr15nmg"></path></g><path d="M174.47,381c-.9.35-.7,1.38.45,2.31a4.45,4.45,0,0,0,3.72,1.05c.9-.35.7-1.39-.45-2.31A4.44,4.44,0,0,0,174.47,381Z" style="fill: #1993CE; transform-origin: 176.555px 382.68px;" id="elee3oga3pcp5" class="animable"></path><path d="M174.47,381c-.9.35-.7,1.38.45,2.31a4.45,4.45,0,0,0,3.72,1.05c.9-.35.7-1.39-.45-2.31A4.44,4.44,0,0,0,174.47,381Z" style="fill: rgb(38, 50, 56); transform-origin: 176.555px 382.68px;" id="elw94hm3i78aa" class="animable"></path><g id="elq2u2d8jvtnd"><path d="M126.85,349.23c-.67.17.65,2.64,2.07,7,.75,2.31,1.15,5.63,4.92,3.78,3.46-1.7.56-5.7-2.13-8.26C129.33,349.49,127.57,349.05,126.85,349.23Z" style="fill: #1993CE; opacity: 0.3; transform-origin: 131.047px 354.872px;" class="animable" id="el0l0q31fcq84"></path></g><g id="elrwow3u5k1ym"><path d="M127.47,347.72c.35.18,2.52.47,6,3.74,1.88,1.76,3.35,4,4,4.26s1.19-2.78,0-4.32a12.21,12.21,0,0,0-5.74-4.08C129.38,346.6,126.88,347.42,127.47,347.72Z" style="fill: #1993CE; opacity: 0.3; transform-origin: 132.778px 351.384px;" class="animable" id="elkuhn2u4g3qs"></path></g><g id="eljhhikosff"><path d="M124.44,362.22c-3.61,0-4.22-.65-2.83-6.48.74-3.07,2.22-6.16,2.83-6.16s2.1,3.09,2.84,6.16C128.67,361.57,128.06,362.22,124.44,362.22Z" style="fill: #1993CE; opacity: 0.3; transform-origin: 124.445px 355.9px;" class="animable" id="elw2ptdg044pe"></path></g><g id="el5yb0qjw9t2m"><path d="M122,349.23c.67.17-.65,2.64-2.07,7-.75,2.31-1.16,5.63-4.92,3.78-3.47-1.7-.56-5.7,2.13-8.26C119.56,349.49,121.32,349.05,122,349.23Z" style="fill: #1993CE; opacity: 0.3; transform-origin: 117.801px 354.872px;" class="animable" id="el7no1t1lx50h"></path></g><g id="el9hstsph4ddc"><path d="M121.42,347.72c-.35.18-2.52.47-6,3.74-1.88,1.76-3.35,4-4.05,4.26s-1.19-2.78,0-4.32a12.21,12.21,0,0,1,5.74-4.08C119.51,346.6,122,347.42,121.42,347.72Z" style="fill: #1993CE; opacity: 0.3; transform-origin: 116.077px 351.384px;" class="animable" id="elvcor8t3ts79"></path></g></g></g><g id="freepik--character--inject-63" class="animable" style="transform-origin: 322.477px 299.776px;"><g id="freepik--character--inject-63" class="animable" style="transform-origin: 322.477px 299.776px;"><path d="M360.88,206.88c5.49-1.22,11.67,2.7,15.85,11.45,4,8.39,15.58,29.48,15.84,35.4.28,6.14-24.72,25.26-24,24.93.22-.1-5.59-11.82-5.59-11.82l13.77-13.72-8.26-16.24Z" style="fill: rgb(255, 168, 167); transform-origin: 376.726px 242.663px;" id="eluefcw605ksm" class="animable"></path><path d="M358,205.57c4.62-.57,13,1.18,16.21,6.74,4.64,8.05,8.52,15.47,14.54,26.66,0,0-4.09,8.62-15.61,9.44l-5.35-10.16Z" style="fill: rgb(55, 71, 79); transform-origin: 373.375px 226.939px;" id="ela0cgwfgf3se" class="animable"></path><path d="M367.06,405.52c.73.3.88,1.7.93,4.47,0,2.11.4,5.78-2.07,6.46s-6.07.22-7.6-1.8c-1.91-2.51-3.19-4.71-5.93-7.79-2.38-2.67-5-5.17-5.86-8.86-.81-3.33,0-4.75,2.24-5.66,3.14-1.26,7.92,3.18,10.34,3.92C361.2,396.89,366.33,405.23,367.06,405.52Z" style="fill: rgb(38, 50, 56); transform-origin: 357.119px 404.43px;" id="el105x6j9q9cm" class="animable"></path><path d="M367.12,403l-.08,3.4s-3.6,2.64-8.61,0c-.14-.33-.79-4.89-.79-4.89Z" style="fill: rgb(255, 168, 167); transform-origin: 362.38px 404.542px;" id="elyt5hifaxsg" class="animable"></path><path d="M339,424.53s.91,3,1.38,5.59c.37,2.07.9,5.52.14,7.06s-3.59,2.46-7.95,2.33c-2.82-.08-7.27,1.74-10.32,3.35s-9.64,2.21-12.93,1.75c-3.87-.54-7.83-2.88-8.43-4.5s.28-3.27,9.52-7c.08,0,12.8-3.86,17.33-8.64Z" style="fill: rgb(38, 50, 56); transform-origin: 320.825px 434.615px;" id="el85oefogaokv" class="animable"></path><path d="M339.12,420.85s-.07,2.53-.09,4-1.78,3.56-6.19,3.3c-3.1-.18-5.25-1.06-5.07-3.61l.09-3.68Z" style="fill: rgb(255, 168, 167); transform-origin: 333.44px 424.511px;" id="elfkqkrvvbwyu" class="animable"></path><path d="M370.35,357.8A93,93,0,0,0,366.73,340s1.56-15.27,2.47-29.77c1-15.66.76-35.38,1.15-39.28,0,0-48.57-11.22-49.88,6.88-1.48,20.36.09,65.21.39,70.88.42,8,.44,16.27,1.79,29.21,1.34,12.77,5.21,42.94,5.21,42.94,5.71,3.25,11.26,0,11.26,0s4.37-36.15,4.21-45.34a78.59,78.59,0,0,0-3-20.13l6-50.46s.6,22.44,1,30.42,1.52,12.84,3.49,27.67c1.7,12.88,7,40.15,7,40.15,5.71,3.25,9.24-.2,9.24-.2S371.66,369,370.35,357.8Z" style="fill: rgb(55, 71, 79); transform-origin: 345.214px 344.908px;" id="elsymuyvo0vw" class="animable"></path><path d="M363.9,294.35s-5.88,7.91-13.45,11.3c0,0-3.29,27.79-3.26,27.24l-.86-28S357.64,299.67,363.9,294.35Z" style="fill: rgb(38, 50, 56); transform-origin: 355.115px 313.624px;" id="el2ylxry5z4gx" class="animable"></path><polygon points="336.63 199.34 339.25 215.88 355.65 215.01 353.3 195.78 336.63 199.34" style="fill: rgb(255, 168, 167); transform-origin: 346.14px 205.83px;" id="els555r4lbjnd" class="animable"></polygon><path d="M368.72,215.13c-1.38-4.51-5.77-10.36-11.48-9.43-1.32.21-1.36.21-2.62.43-.68,2.79-9.07,5.16-16.37,3.44q-3.3.87-6.05,1.78c-5.25,1.75-10.09,6.14-10.91,23.25,0,0-1.44,39.53-1.19,50.22,13,5.46,24.63,5.57,32.18,4.1,15.72-3.07,18.31-9.8,18.31-9.8s.56-31,.37-43.4C370.8,225.18,369.66,218.23,368.72,215.13Z" style="fill: rgb(69, 90, 100); transform-origin: 345.535px 247.663px;" id="elyqxzrurir9q" class="animable"></path><path d="M325.6,179.05s-3.91,5.93-3.46,6.51,3.32,1.11,3.32,1.11Z" style="fill: rgb(242, 143, 143); transform-origin: 323.852px 182.86px;" id="elm4pz482fhos" class="animable"></path><path d="M336.45,162.64c-7.91,1.67-10.19,5.15-10.93,17.71-.78,13.13.56,17.26,2.28,19,1.17,1.19,7.64,1.4,10.9.5,4.09-1.12,13.32-4.39,17.64-11,5.09-7.77,6.43-18.3,1-22.62C349.66,160.18,339.67,162,336.45,162.64Z" style="fill: rgb(255, 168, 167); transform-origin: 343.063px 181.143px;" id="el1seumtivt7y" class="animable"></path><path d="M336.77,200.25a32.83,32.83,0,0,0,4.17-1.05,7.35,7.35,0,0,1-4,2.29Z" style="fill: rgb(242, 143, 143); transform-origin: 338.855px 200.345px;" id="ellmph2cmt88q" class="animable"></path><path d="M323.92,167.5a10.41,10.41,0,0,0,2,1.59,28,28,0,0,0,3.3,1.84,19.55,19.55,0,0,1,3.21,1.5c1.44,1,1.62,2.38,1.66,4,0,1.08,0,2.42,0,3.87,0,2.18,1.41,3.84,2.09.92,0,0,1.25-4.86,5.34-4.25s4.45,5.22,2.5,8.84c-1.18,2.2-4.36,1.63-4.36,1.63a14.26,14.26,0,0,0,4.27,11s3.15,1,9.58-.41c4-.85,7.75-5.2,10.1-10.43,5-11.07,5.32-21-1.74-24-.77-5.1-4.79-7.39-9.36-8.44-6.85-1.57-13.26,2.49-20,1a33.29,33.29,0,0,1-3.3-.86,1.79,1.79,0,0,0-1.34-.09,1.51,1.51,0,0,0-.64,1.51,4.11,4.11,0,0,0,2,3.21c-.14-.09-.79.09-1,.11l-1.14,0a20.9,20.9,0,0,1-2.22-.16,4.13,4.13,0,0,0-1.53,0,2.78,2.78,0,0,0-1.76,2.79,7,7,0,0,0,1.22,3.29,9.45,9.45,0,0,0,.82,1.17Z" style="fill: rgb(38, 50, 56); transform-origin: 344.425px 176.788px;" id="elcj9w00tw3ee" class="animable"></path><path d="M362.05,165.32l4.73-2.79a2.75,2.75,0,1,0-4.73,2.79Z" style="fill: rgb(38, 50, 56); transform-origin: 364.184px 163.182px;" id="eluzozgpblbn" class="animable"></path><path d="M268.62,239.59C271,240.73,300,263.42,304.53,261s28.28-29.31,28.28-29.31a18.38,18.38,0,0,0-.2-20.44s-7.43,1.2-11.42,7S300,244.6,300,244.6q-6.12-3.24-12.19-6.56c-3.34-1.83-6.69-3.65-9.95-5.6a12.56,12.56,0,0,1-2.57-1.66c-1.59-1.65-1.22-5.55-1.14-7.67a27,27,0,0,1,.21-3c.16-1.2.46-4.17-1.74-3.27a2.65,2.65,0,0,0-1.06.85,5.18,5.18,0,0,0-.82,1.47c-.44,1.27-.33,2.68-.74,4a1.16,1.16,0,0,1-.28.51,1,1,0,0,1-.7.2c-3.17-.17-6.08-4.69-7.48-7.09a6.53,6.53,0,0,0-2.35-2.8c-1.72-.85-3.84.27-5,1.8a10.05,10.05,0,0,0-1.73,7,13.9,13.9,0,0,0,3.94,8.87A42.61,42.61,0,0,0,268.62,239.59Z" style="fill: rgb(255, 168, 167); transform-origin: 294.098px 236.215px;" id="elapx99u3h0cv" class="animable"></path><path d="M335,210.48c-3.19.29-8.48.41-13.78,6.16-6.21,6.71-15.77,20-15.77,20a17.66,17.66,0,0,0,11.28,13.69s14.87-13.42,18-19.51S338.63,214.71,335,210.48Z" style="fill: rgb(55, 71, 79); transform-origin: 321.432px 230.405px;" id="eltd97o66d6" class="animable"></path></g></g><g id="freepik--speech-bubble--inject-63" class="animable" style="transform-origin: 341.615px 111.228px;"><g id="freepik--speach-bubble--inject-63" class="animable" style="transform-origin: 341.615px 111.228px;"><path d="M336.46,137l-2.79-5.25,2.25-6.48v-4l-6.88,4v4l3,5.12a.49.49,0,0,0,.2.18h0Z" style="fill: #1993CE; transform-origin: 332.75px 129.135px;" id="elqm4pyc4ne8d" class="animable"></path><g id="eldpeug0nvbob"><path d="M336.46,137l-2.79-5.25,2.25-6.48v-4l-6.88,4v4l3,5.12a.49.49,0,0,0,.2.18h0Z" style="opacity: 0.2; transform-origin: 332.75px 129.135px;" class="animable" id="elvkadjv3dqm"></path></g><path d="M366,90.41a4.55,4.55,0,0,0-2.06-3.57l-1.68-1a4.53,4.53,0,0,0-4.12,0l-38.85,22.45a4.55,4.55,0,0,0-2.06,3.57V132a4.55,4.55,0,0,0,2.06,3.57l1.67,1a4.53,4.53,0,0,0,4.12,0l8.28-4.78,2.95,5.11a.44.44,0,0,0,.79-.08l3.12-9,23.72-13.7A4.55,4.55,0,0,0,366,110.5Z" style="fill: #1993CE; transform-origin: 341.615px 111.228px;" id="el8q6hmfcq86t" class="animable"></path><g id="ellobc5uui1q"><path d="M317.23,132a4.55,4.55,0,0,0,2.06,3.57l1.67,1a4.66,4.66,0,0,0,3.77.17c-1,.36-1.71-.19-1.71-1.36v-20.1a4.29,4.29,0,0,1,.61-2l-5.8-3.34a4.21,4.21,0,0,0-.6,2Z" style="opacity: 0.2; transform-origin: 320.98px 123.499px;" class="animable" id="el61h7ico4ml"></path></g><g id="elalih2060z7r"><path d="M365.93,89.82c-.24-.87-1-1.15-2-.6l-38.86,22.45a4.15,4.15,0,0,0-1.45,1.54l-5.79-3.35a4.15,4.15,0,0,1,1.45-1.54l38.85-22.45a4.6,4.6,0,0,1,4.12,0l1.68,1A4.55,4.55,0,0,1,365.93,89.82Z" style="fill: rgb(255, 255, 255); opacity: 0.2; transform-origin: 341.88px 99.2965px;" class="animable" id="el7wc2lze1ixp"></path></g><path d="M334.38,115.56a6.06,6.06,0,0,0-2.75,4.76c0,1.75,1.23,2.46,2.75,1.59a6.1,6.1,0,0,0,2.74-4.76C337.12,115.39,335.89,114.68,334.38,115.56Z" style="fill: rgb(255, 255, 255); transform-origin: 334.375px 118.732px;" id="elootkpqfzwu" class="animable"></path><path d="M344.51,109.69a6.08,6.08,0,0,0-2.75,4.77c0,1.75,1.23,2.46,2.75,1.58a6.06,6.06,0,0,0,2.75-4.76C347.26,109.53,346,108.82,344.51,109.69Z" style="fill: rgb(255, 255, 255); transform-origin: 344.51px 112.868px;" id="el5xysq09z55r" class="animable"></path><path d="M354.65,103.83a6.08,6.08,0,0,0-2.75,4.76c0,1.75,1.23,2.47,2.75,1.59a6.08,6.08,0,0,0,2.75-4.76C357.4,103.66,356.17,103,354.65,103.83Z" style="fill: rgb(255, 255, 255); transform-origin: 354.65px 107.015px;" id="el5o33ur6g33p" class="animable"></path></g></g><defs>     <filter id="active" height="200%">         <feMorphology in="SourceAlpha" result="DILATED" operator="dilate" radius="2"></feMorphology>                <feFlood flood-color="#32DFEC" flood-opacity="1" result="PINK"></feFlood>        <feComposite in="PINK" in2="DILATED" operator="in" result="OUTLINE"></feComposite>        <feMerge>            <feMergeNode in="OUTLINE"></feMergeNode>            <feMergeNode in="SourceGraphic"></feMergeNode>        </feMerge>    </filter>    <filter id="hover" height="200%">        <feMorphology in="SourceAlpha" result="DILATED" operator="dilate" radius="2"></feMorphology>                <feFlood flood-color="#ff0000" flood-opacity="0.5" result="PINK"></feFlood>        <feComposite in="PINK" in2="DILATED" operator="in" result="OUTLINE"></feComposite>        <feMerge>            <feMergeNode in="OUTLINE"></feMergeNode>            <feMergeNode in="SourceGraphic"></feMergeNode>        </feMerge>            <feColorMatrix type="matrix" values="0   0   0   0   0                0   1   0   0   0                0   0   0   0   0                0   0   0   1   0 "></feColorMatrix>    </filter></defs></svg>
